<?xml version="1.0" encoding="utf-8"?>
<!-- Generator: Adobe Illustrator 16.0.3, SVG Export Plug-In . SVG Version: 6.00 Build 0)  -->
<!DOCTYPE svg PUBLIC "-//W3C//DTD SVG 1.1//EN" "http://www.w3.org/Graphics/SVG/1.1/DTD/svg11.dtd">
<svg version="1.1" id="圖層_1" xmlns="http://www.w3.org/2000/svg" xmlns:xlink="http://www.w3.org/1999/xlink" x="0px" y="0px"
	 width="1354px" height="593px" viewBox="0 0 1354 593" enable-background="new 0 0 1354 593" xml:space="preserve">
<path fill="#181719" d="M293.02,1.21c5.569,1.52,11.35,0.29,16.99,1.8c2.51,0.82,4.949,1.13,7.55,1.46
	c8.13,1.93,16.13,4.31,23.7,7.9l0.5,0.239c1.159,0.58,2.319,1.181,3.479,1.79l0.46,0.25c9.17,4.87,16.49,11.63,23.95,18.7
	c3.34,3.69,6.51,7.5,9.56,11.43c5.82,6.971,11.9,13.49,16.91,21.16c5.73,7.721,9.891,16.721,15.09,24.87
	c3.59,5.68,6.48,11.71,9.11,17.88c15.37,31.41,30.521,62.25,46.01,93.61l0.24,0.5c16.66,33.71,33.07,67.22,49.65,100.939
	c25.49,51.48,50.67,103.07,76.1,154.57l0.23,0.479c1.189,2.54,2.47,5.021,3.739,7.521l0.271,0.55c1.35,2.521,2.02,4.41,2.04,7.32
	c-1.44,1.01-2.96,2.34-4.69,2.76c-9.83,2.521-19.779,4.34-29.439,7.51c-10.09,2.551-19.49,6.58-28.88,10.761
	c-3.471,0.029-6.841,2.069-10.15,3.22c-5.979,2.18-11.44,5.43-17.42,7.59c-43.73,19.69-82.57,48.58-115.12,83.69
	c-1.5-0.19-3.41,0.109-4.75-0.591c-1.73-1.609-3.44-3.479-4.48-5.619c-2.76-6.54-5.31-13.15-7.97-19.73l-0.27-0.66
	c-5.79-13.859-11.721-27.67-17.7-41.439l-0.25-0.561c-2.05-4.42-3.69-9.01-5.83-13.399l-0.22-0.5
	c-2.58-5.841-5.051-11.721-7.721-17.521l-0.25-0.54c-2.899-6.82-5.75-13.66-8.87-20.39l-0.22-0.5
	c-7.12-15.71-14.08-31.5-21.689-46.96c-7.87-16.17-14.721-32.771-21.011-49.61l-0.199-0.53l-0.75-2.04l-0.181-0.52
	c-0.38-1.37-0.96-2.62-1.729-3.75c-3.38,4.62-6.36,9.54-9.69,14.21c-11.72,17.89-24.149,35.76-37.89,52.16
	c-11.87,15.12-25.13,27.97-38.65,41.38c-11.63,10.89-23.93,20.88-37.8,28.79l-0.48,0.26c-11.689,6.351-24.01,11.21-36.859,14.64
	c-3.34,1.141-6.45,1.65-9.96,1.86c-2.181,1.36-4.931,1.05-7.471,1.34c-6.029,0.57-11.989-0.17-18.09-0.399
	c-4.79-1.57-9.81-0.95-14.399-2.92c-15.5-1.721-30.65-8.931-42.83-18.54l-0.4-0.311c-5.729-4.31-10.55-9.76-14.78-15.52l-0.279-0.4
	C7.69,465.55,3.58,444.92,1,425.89c0.24-4.59,0.061-8.91-1-13.4v-30.88c1.48-4.24,0.94-8.24,1.08-12.62
	c0.061-3.13,0.51-6.18,0.76-9.31c0.25-2.97,0.33-5.95,0.69-8.92C6,322.1,13.34,293.87,23.42,266.85l0.23-0.64
	c10.08-27.05,24.04-52.7,38.74-77.45l0.279-0.47c7.29-12.271,15.301-24.07,23.71-35.59l0.28-0.41c6.07-8.7,12.561-17.13,19.55-25.12
	c15.521-19.22,32.65-37.38,49.99-54.98c7.44-7.6,15.62-14.38,23.26-21.779c3.88-3.29,7.78-6.57,11.7-9.83l0.42-0.351
	c4.05-3.38,8.29-6.609,12.63-9.63l0.45-0.31c3.79-2.65,7.6-5.32,11.6-7.66l0.48-0.26c2.78-1.4,5.39-2.9,8-4.601
	c11.98-6.609,24.13-11.99,37.79-13.95c4.3-1.869,9.93-1.56,14.49-1.979C282.22,0.47,287.71,0.63,293.02,1.21z"/>
<path fill="#181719" d="M1082.03,2.9c7.061,1.32,14.7,2.301,21.431,4.87c11.239,2.51,21.949,8.851,31.85,14.57l0.47,0.25
	c2.25,1.14,4.36,2.42,6.44,3.86l0.399,0.27c4.49,3.03,9.04,6.02,13.341,9.32c29.689,23.38,56.539,51.189,81.409,79.58
	c9.28,11.22,19.28,22.51,27.641,34.38c9,12.43,17.93,25.109,25.689,38.35c17.391,28.74,32.86,58.08,43.7,89.98l0.141,0.409
	c7.029,21.34,12.739,42.63,15.739,64.931c1.73,8.1,1.45,16.27,2.75,24.449c-0.02,4.561-0.63,9.801,0.97,14.101v30.66
	c-0.39,2.67-1.069,5.31-0.88,7.97c0.66,5.25-1.29,9.87-1.449,15.07c-1.45,9.39-3.721,18.729-7.051,27.64
	c-5.63,16.31-17.43,30.51-31.899,39.8l-0.5,0.32c-0.83,0.55-1.67,1.09-2.5,1.63l-0.51,0.32c-11.511,6.92-24.431,11.01-37.74,12.54
	c-5.33,2.05-11.891,1.71-17.521,1.85c-2.39,0.33-4.34,1.29-6.83,0.59c-3.979-1.07-8.09-0.37-12.12-1.28
	c-13.56-2.939-26.959-7.38-39.359-13.64l-0.46-0.22c-9.21-4.33-17.12-10.11-25.37-15.97l-0.37-0.28
	c-9.149-7.38-17.94-15.09-26.04-23.62c-22.97-22-43.03-47.55-60.729-73.91l-0.28-0.42c-1.25-1.84-2.521-3.67-3.72-5.54l-0.29-0.43
	c-4.34-6.65-8.99-13.07-13.19-19.8c-6.05,15.289-11.649,30.699-18.62,45.619l-0.279,0.601c-13.9,28.859-27.12,58.03-39.751,87.46
	l-0.229,0.479c-8.75,19.79-17.22,39.67-25.74,59.551l-0.22,0.5c-3.62,8.68-6.91,17.52-10.68,26.14c-0.99,2.34-2.641,4.51-4.73,5.96
	c-1.979-0.32-3.84-0.99-5.24-2.48c-3.16-3.18-5.97-6.72-9.05-9.97c-28.78-29.7-62.83-54.1-100.2-71.82
	c-24.05-11.5-49.399-20.63-75.42-26.5c-1.47-0.25-2.96-0.39-4.45-0.55c-1.26-0.96-2.529-0.96-4.04-1.109
	c-2.38-1.221-4.39-1.82-7.069-2.07c-0.98-0.79-1.98-1.55-3-2.28c-0.09-1.64-0.271-3.319-0.101-4.95
	c10.45-21.229,20.57-41.899,31.07-63.18l0.29-0.59c1.25-2.49,2.51-4.97,3.71-7.48l0.25-0.51c19.85-40.09,38.96-79.31,58.79-119.54
	l0.26-0.54l0.23-0.479l0.14-0.28c24.59-49.51,48.75-99.25,73.38-148.939c3.971-8.37,8.46-16.53,11.95-25.11
	c2.66-6.2,6.71-11.99,10.07-17.9c3.529-5.6,6.18-11.569,10.189-16.859c4.28-6.61,9.15-12.72,14.48-18.5
	c4.46-5.55,8.92-11.07,13.66-16.38c6.06-5.25,11.51-10.94,18.449-15.12l0.44-0.28c2.1-1.33,4.25-2.6,6.46-3.75l0.58-0.3
	c2.76-1.41,5.62-2.51,8.479-3.72l0.5-0.2C1039.461,3.21,1061.15,0.59,1082.03,2.9z"/>
<path fill="#FEFEFD" d="M277.99,8.59c8.46-1.17,16.59-0.11,25,0.66c17.34,2.38,33.93,6.96,48.13,17.59
	c6.141,4.28,10.74,9.82,16.11,14.93c4.16,4.54,7.68,9.63,11.899,14.13c5.11,6.12,10.131,12.141,13.92,19.08
	c4.5,6.34,7.921,13.391,12.091,19.95c2.069,3.58,4.55,7.26,5.75,11.23c1.069,3.579,3.46,6.569,4.899,10.04
	C474.1,234.78,532.49,353.31,590.81,471.89c-5.771,1.83-11.82,2.85-17.67,4.39c-9.47,2.681-18.91,5.3-28.09,8.9
	c-10.69,3.31-20.82,7.32-31.061,11.81c-8.859,3.88-18.229,7.561-26.649,12.311c-10.33,5.76-21.091,11.45-30.66,18.42
	c-10.59,7.649-21.21,15.35-31.13,23.859c-11.811,9.761-22.851,20.45-34.69,30.15c-12.09-30.37-25.16-60.32-38.311-90.25
	c-9.779-22.69-19.909-45.229-30.449-67.58c-6.79-13.89-13.221-27.95-18.811-42.37c-3.319-8.09-5.92-16.59-9.819-24.41
	c11.09-16.83,21.829-33.869,33.25-50.479c2.619,22.399,11.079,43.439,23.439,62.2c8.62,12.54,19.021,23.84,27.561,36.47
	c10.069,14.56,17.609,31.07,23.13,47.85c3.42,9.561,5.92,19.29,8.899,29.03c1.03,3.26,1.3,7.13,3.021,10.08
	c3.59,5.69,6.22,11.14,12.13,14.86c7.53,4.689,17.43,5.92,26.1,4.819c6.24-1.359,12.301-4.67,17.19-8.739
	c8.94-8.421,13.58-20.24,15.32-32.2c0.96-4.641,0.5-9.28,1.01-14.01c0.479-5.49-0.92-10.53-0.15-15.971
	c0.601-3.279-0.06-6.35-0.68-9.56c-4.31-21.79-10.14-44.24-19.81-64.32c-6.41-14.09-14.82-27.479-24.16-39.82
	c-9.98-12.64-20.851-24.6-30.671-37.359c-7.649-10.45-14.369-21.76-19.229-33.79c-3.83-10.01-7.72-21.51-8.38-32.2
	c2.76-4.33,6.18-8.25,9.17-12.43c0.61-0.8,0.88-1.65,0.83-2.54c0.34-2.9-3.96-4.51-5.78-2.33c-2.86,2.78-5,6.37-7.46,9.5
	c-6.04,7.74-11.6,15.87-16.95,24.1c-7.479,12.08-15.7,23.681-23.189,35.761c-9.681,15.779-20.311,31.029-30.57,46.439
	c-4.62,7.06-9.06,14.23-13.75,21.25c-20.4,30.69-39.06,60.81-63.09,88.88c-10.55,12.61-22.07,23.78-33.75,35.28
	c-8.43,7.75-16.92,15.189-26.58,21.399c-11.771,8.15-25.16,14.11-38.83,18.261c-8.21,2.88-16.8,4.56-25.49,4.97
	c-8.39-0.05-16.66-0.86-24.85-2.67c-11.26-1.85-22.13-5.01-31.88-11.09c-15.73-8.94-28.07-23.3-33.74-40.55
	C9.82,441.94,7.74,425.15,7.12,408c0.14-10.94-0.47-21.62,0.73-32.49c0.489-12.49,1.77-24.99,3.77-37.34
	c6-35.71,17.521-70.57,33.54-103.03c7.44-14.97,15.64-29.42,24.26-43.729C78,176.75,87.69,163.32,97.61,149.59
	c7.2-9.771,15.11-18.75,22.84-28.11c9.021-10.609,18.48-20.87,28.12-30.92c11.08-11.83,22.81-23.35,35.24-33.76
	c9.33-9.07,19.84-17.08,30.6-24.39c11.521-6.82,22.23-13.78,35.1-18C258.79,11.49,268.28,9.35,277.99,8.59z"/>
<path fill="#FEFEFD" d="M1056.51,9.79c14.399-1.891,29.569,0.399,43.479,4.27c10.141,2.66,19.95,7.73,28.98,12.98
	c4.46,2.96,9.279,5.22,13.59,8.39c9.73,6.75,19.11,14.14,27.64,22.36c10.45,8.819,20.41,18.27,29.86,28.149
	c13.7,14.21,27.32,28.83,39.82,44.11c7.08,8.36,14.01,16.82,20.3,25.8c9.95,13.61,19.34,27.59,27.76,42.2
	c15.62,26.18,29.32,52.87,39.21,81.79c10.13,29.609,17.061,59.84,18.72,91.16c0.091,6.359,1.181,12.619,1.011,19
	c-0.16,9.8,0.479,19.76-0.67,29.489c-0.91,15.83-4.25,31.69-10.301,46.37c-5.54,12.17-14.52,22.97-25.67,30.38
	c-7.72,5.34-16.13,9.53-25.21,11.96c-4.78,1.4-9.66,2.141-14.54,3.08c-12.79,2.59-25.729,3.2-38.479,0
	c-14.07-3.64-27.72-8.67-40.37-15.91c-16.08-9.55-30.08-21.54-43.061-34.939c-22.17-21.18-41.6-45.9-58.789-71.23
	c-11.971-17.75-23.78-35.609-35.45-53.56c-11.65-18.54-24.521-36.28-36.101-54.9c-8.13-13.38-17.2-26.159-25.49-39.449
	c-7.17-11.301-15.21-22.08-23.449-32.61c-1.94-2.479-4.65-2.88-6.58-0.13c-0.88,3.37,1.56,4.96,3.26,7.46
	c4.95,6.7,10.29,13.19,14.75,20.22c-5.88,4.19-10.01,9.69-13.87,15.7c-8.89,13.6-14.36,28.68-18.649,44.26
	c-5.9,23.18-11.051,47.83-21.5,69.521c-4.561,9.369-10.19,18.43-15.891,27.149c-5.95,8.97-12.7,17.311-18.899,26.101
	c-8.15,11.55-15.681,22.63-19.28,36.529c-1.73,9.061-2.09,17.99,2.62,26.25c8.739,15.91,30.7,21.69,46.8,14.271
	c13.78-6.25,25.71-16.05,34.79-28.12c4.06-5.29,7.99-10.811,11.7-16.36c13.35-20.779,22.26-42.859,31.26-65.729
	c3.97-10.86,7.189-22.021,11.03-32.94c3.069-8.439,6.6-17.7,11.989-24.939c3.261-3.82,6.931-7.49,11.2-10.181
	c9.141,13.261,17.561,27.011,26.49,40.42c-3.67,7.101-5.94,14.95-9.021,22.341c-4.899,12.8-10.449,25.31-16.329,37.68
	c-9.12,18.729-17.61,37.78-26.12,56.8c-12.681,29.36-25.761,58.54-37.96,88.12c-2.54,6.53-5.221,13.03-7.91,19.51
	c-0.891-0.04-1.58-0.99-2.24-1.53c-14.44-14.21-29.479-28.05-45.54-40.42c-11.63-8.479-22.21-17.22-34.9-24.18
	c-21.52-12.39-43.59-23.11-67.26-30.78c-15.189-5.25-30.56-8.069-46.12-11.939c-0.88-0.29-1.699-0.78-2.439-1.48
	c-1.25-0.76,0.04-2.279,0.35-3.24c58.2-118.159,116.34-236.339,174.5-354.51c1.17-2.319,2.57-4.239,3.32-6.619
	c1.12-4.011,3.24-7.221,5.31-10.811c4.46-6.979,8.021-14.38,12.771-21.13c4.649-8.24,10.569-15.2,16.78-22.27
	c4.25-5.11,8.069-10.45,13.079-14.881c9.851-10.979,22.631-19.069,36.7-23.449C1036.9,12.51,1046.68,10.41,1056.51,9.79z"/>
<path fill="#96937D" d="M1019.75,10.42l-0.5,0.2L1019.75,10.42z"/>
<path fill="#96937D" d="M341.26,12.37l0.5,0.239L341.26,12.37z"/>
<path fill="#96937D" d="M345.24,14.4l0.46,0.25L345.24,14.4z"/>
<path fill="#96937D" d="M1010.77,14.34l-0.58,0.3L1010.77,14.34z"/>
<path fill="#96937D" d="M1003.73,18.39l-0.44,0.28L1003.73,18.39z"/>
<path fill="#96937D" d="M216.74,22.37l-0.48,0.26L216.74,22.37z"/>
<path fill="#96937D" d="M1135.31,22.34l0.47,0.25L1135.31,22.34z"/>
<path fill="#96937D" d="M1142.22,26.45l0.399,0.27L1142.22,26.45z"/>
<path fill="#96937D" d="M204.66,30.29l-0.45,0.31L204.66,30.29z"/>
<path fill="#96937D" d="M191.58,40.23l-0.42,0.351L191.58,40.23z"/>
<path fill="#96937D" d="M86.66,152.29l-0.28,0.41L86.66,152.29z"/>
<path fill="#96937D" d="M62.67,188.29l-0.279,0.47L62.67,188.29z"/>
<path fill="#96937D" d="M466.33,202.3l0.24,0.5L466.33,202.3z"/>
<path fill="#96937D" d="M79.53,206.61c0.96-0.189,2.05,0.25,2.99,0.46c-2.73,4.86-5.61,9.641-8.38,14.48
	c-0.391,0.12-0.78,0.24-1.17,0.36c0.05,4.31-3.141,6.229-4.511,10.109c-1.63,4.01-4.18,7.51-5.81,11.521
	c-6.09,12.529-11.48,25.439-16.311,38.5c-0.729,1.54-1.689,3.58-3.72,2.31c-1.1-4.04,1.771-7.649,3.03-11.38
	c2.229-6.59,4.859-13.28,8.26-19.35c1.55-4.75,3.57-9.301,5.99-13.67c2.2-3.881,3.8-8.03,6.04-11.891
	c3.63-5.76,6.79-11.83,10.28-17.68C77.16,208.91,78.02,207.55,79.53,206.61z"/>
<path fill="#96937D" d="M85.58,211.52c0.72-0.149,1.44-0.28,2.16-0.38c0.44,3.03-0.93,4.97-3.04,6.96
	c-1.36,1.061-1.14,2.83-1.979,4.44C78.34,231.03,74.4,239.78,70.5,248.5c-1.25,2.14-2.609,4.08-3.37,6.479
	c-4.83,10.601-9.949,21.08-14.93,31.61c-0.94-0.32-1.89-0.63-2.84-0.95c0.56-2.11,1.18-4.189,2.14-6.16
	c2.61-5.439,4.931-11.029,7.391-16.54c0.67-1.779,3.47-3.85,2.899-5.88c3.45-6.67,6.41-13.54,9.76-20.26
	c1.101-1.96,1.45-5.12,3.91-5.68c-0.7-3.12,1.54-4.83,2.721-7.54C80.23,219.24,82.26,215.13,85.58,211.52z"/>
<path fill="#96937D" d="M94.77,215.39c-0.8,3.061-1.21,5.78-4.101,7.61c-0.04,0.67-0.08,1.34-0.12,2.02
	c-1.46,2.141-2.529,4.46-3.51,6.86c-1.84,4.46-4.54,8.31-6.689,12.59c-6.42,14.63-12.971,29.3-18.95,44.13
	c-1.04,0.03-2.08,0.05-3.12,0.07c0.229-2.061,0.33-4.01,1.37-5.86c2.81-5.13,4.39-10.72,6.899-16c2.49-5.3,3.931-11.08,7.261-15.729
	c0.439-3.521,3.06-6.721,4.52-9.931c3.91-8.149,7.84-16.5,12.63-24.18C91.99,215.22,92.97,215.49,94.77,215.39z"/>
<path fill="#FEFEFD" d="M375.6,233.23c0.149,1.24,0.239,2.49,0.279,3.75c-1.14-0.569-1.96-1.34-2.439-2.319
	C373.93,233.45,374.65,232.98,375.6,233.23z"/>
<path fill="#42AABF" d="M373.44,234.66c0.479,0.979,1.3,1.75,2.439,2.319c1.551,4.021,2.23,8.311,3.74,12.36
	c5.21,16.149,13.45,30.979,23.42,44.649c12.061,16.061,26.46,30.59,37.761,47.21c9.199,13.261,16.47,27.65,22.42,42.63
	c6,16.011,10.189,32.521,13.49,49.271c-0.04,6.979,0.369,13.93,0.699,20.9c-0.13,4.34-0.449,8.68-0.55,13.02
	c-1.17,9.45-3.79,18.61-9.54,26.34c-3.7,5.57-10.27,9.25-16.49,11.311c-6.88,1.14-14.46,0.399-20.72-2.841
	c-5.16-2.84-8.8-8.6-10.97-13.93c-4.62-13.59-7.86-27.649-12.83-41.149c-5.9-16.921-13.79-33.19-24.2-47.811
	c-8.16-11.66-17.771-22.36-25.91-34.05c-11.11-16.98-18.99-35.74-21.939-55.89c-0.25-4.25-0.9-8.73-0.41-12.95
	c4.479-7.48,9.38-14.79,13.939-22.25C356.52,260.87,364.8,247.64,373.44,234.66z"/>
<path fill="#42AABF" d="M984.961,242.39c7.229,10.98,14.31,22.08,21.63,33.01c7.479,12.29,15.449,24.25,23.37,36.271
	c-3.561,2.5-6.881,5.229-9.851,8.42c-5.479,5.63-8.53,12.21-11.79,19.229c-5.72,14.07-9.859,28.891-14.95,43.17
	c-8.58,22-17.12,43.11-29.63,63.25c-9.8,14.561-18.76,28.16-33.899,37.811l-0.42,0.27c-5.131,3.26-10.811,6.46-16.801,7.75
	c-7.08,1-14.609,0.351-20.84-3.41c-6.229-3.31-11.16-9.18-12.63-16.14c-1.16-6.58-0.4-13.67,2.04-19.89
	c3.94-10.891,10.13-19.82,16.72-29.2c4.59-6.38,9.33-12.65,13.99-18.98c7.89-11.43,15.47-23.06,21.51-35.58
	c9.94-20.779,15.431-44.92,20.891-67.229c4.85-18.53,11.38-36.33,23.1-51.71C979.6,246.93,981.961,243.92,984.961,242.39z"/>
<path fill="#96937D" d="M23.65,266.21l-0.23,0.64L23.65,266.21z"/>
<path fill="#96937D" d="M851.11,277.48l-0.14,0.28L851.11,277.48z"/>
<path fill="#96937D" d="M850.74,278.24l-0.26,0.54L850.74,278.24z"/>
<path fill="#96937D" d="M1334.4,278.33l0.141,0.409L1334.4,278.33z"/>
<path fill="#96937D" d="M1095.33,344.31c0.74,0.09,1.48,0.19,2.221,0.3c2.34,2.15,4.74,4.2,7.109,6.311
	c0.34,1.399-0.229,2.59-1.689,3.569c-1.7-0.779-3.36-1.38-4.641-2.81C1096.341,349.28,1093.39,347.829,1095.33,344.31z"/>
<path fill="#96937D" d="M512.39,347.55c1.28-0.07,2.56-0.13,3.84-0.2c3.02,8.51,8.07,16.36,11.81,24.59
	c1.471,3.34,3.95,5.86,3.641,9.66c-2.05-0.19-3.391,0.229-4.28-1.95c-2.52-4.91-4.49-10.07-7.2-14.88
	c-1.29-2.71-2.029-5.5-3.96-7.89c0.49-0.66,0.98-1.32,1.471-1.971C514.7,354.81,513.02,349.99,512.39,347.55z"/>
<path fill="#96937D" d="M1.84,359.68c-0.25,3.13-0.699,6.18-0.76,9.31c-0.14,4.38,0.4,8.38-1.08,12.62v-14.83
	C0.91,364.47,1.34,362.11,1.84,359.68z"/>
<path fill="#96937D" d="M1116.131,361.4l0.34,1.78c1.609,0.79,3.149,1.02,3.359,3.13c1.311,0.37,2.551,0.81,3.801,1.35
	c-0.061,1.011-0.12,2.011-0.17,3.011c-4.17-0.221-7.74-4.92-11.091-6.66c0.551-0.23,1.091-0.48,1.63-0.74
	C1114.72,362.659,1115.43,362.039,1116.131,361.4z"/>
<path fill="#96937D" d="M1100.211,364.72c0.46,0.85,0.92,1.7,1.399,2.54c0.97,1,1.561,1.92,2.061,3.22l0.579,0.1
	c0.521,0.591,1.211,1.011,2.07,1.24c0,0.891,0.01,1.79,0.01,2.681c-1.52-0.15-2.819,0.409-3.909-0.9c-1.79-1.93-3.11-4.271-4.79-6.3
	c0-1.011,0.01-2.011,0.029-3.011C1098.51,364.42,1099.36,364.57,1100.211,364.72z"/>
<path fill="#96937D" d="M290.54,368.6l0.181,0.52L290.54,368.6z"/>
<path fill="#96937D" d="M1353.03,368.119l0.97,1.15v12.95C1352.4,377.92,1353.01,372.68,1353.03,368.119z"/>
<path fill="#96937D" d="M291.47,371.159l0.199,0.53L291.47,371.159z"/>
<path fill="#96937D" d="M1117.551,375.43c1.04,0.24,2.08,0.49,3.12,0.77c2.029,2.04,3.3,4.09,4.38,6.75c-0.69,0.67-1.38,1.33-2.08,2
	C1120.83,382.5,1116.211,379.06,1117.551,375.43z"/>
<path fill="#96937D" d="M822.85,377.4l3-0.189c-0.45,5.569-4.95,10.54-6.87,15.76c-1.74,4.66-4.78,8.6-6.57,13.22
	c-0.75,2.17-2.27,3.83-3.229,5.86c-4.49,10.529-10.61,20.38-15.2,30.819c-2.75,5.841-6.09,11.351-8.93,17.141
	c-2.19,4.25-3.67,8.55-6.681,12.34c-0.949,0.01-1.909,0.02-2.87,0.03c-0.05-0.971,0-1.931,0.15-2.86
	c2.98-5.48,5.87-11.04,8.57-16.66c0.63-0.359,1.399-0.49,2.319-0.38c-0.489-0.39-0.979-0.79-1.46-1.18
	c1.931-4.101,3.891-8.181,5.96-12.21c1.431-2.82,3.33-5.21,4.131-8.33c0.68-0.25,1.359-0.49,2.04-0.74
	c-0.131-0.65-0.271-1.3-0.4-1.95c2.59-4.55,4.3-10.479,8.189-14.03c0.44-4.64,3.551-9.079,5.61-13.239
	c0.98-1.38,1.54-3.95,3.65-3.49c-0.521-0.3-1.03-0.61-1.55-0.92C816.45,390.25,819.06,383.47,822.85,377.4z"/>
<path fill="#96937D" d="M529.49,382.47c1.21,0.02,2.42,0.04,3.63,0.069c7.391,14.54,14.73,29.15,21.65,43.921
	c2.229,4.51,4.86,8.439,5.96,13.439c2.44,1.79,2.73,4.311,3.87,6.92c3.649,6.96,7.58,13.851,10.57,21.13
	c1.17,2.21,2.47,4.15,2.76,6.721l-3.38,0.33c-4.471-6.761-6.57-13.971-10.5-21.101c-0.46-0.63-0.44-1.37,0.069-2.2
	c-0.46-0.069-0.93-0.14-1.39-0.21c-3.01-5.92-5.38-12.109-8.72-17.84c-3.771-7.17-6.851-14.729-10.78-21.82
	c0.31-0.3,0.63-0.609,0.95-0.909c-2.63-1.601-3.44-4.23-4.63-6.87C536.5,396.789,531.74,390.03,529.49,382.47z"/>
<path fill="#96937D" d="M1155.7,383.46c3.181,0.47,5.891,4.22,8.011,6.439c0.479,2.21-0.03,3.351-1.54,3.41
	c-3.33-1.48-5.921-4.97-7.82-8C1154.78,384.68,1155.23,384.06,1155.7,383.46z"/>
<path fill="#96937D" d="M1138.711,384.869c0.92-0.1,1.84-0.17,2.77-0.229c-0.07,1.04-0.14,2.07-0.21,3.1l2.271-0.46l-0.041,1.45
	l1.931-0.11c-0.061,1.101-0.12,2.2-0.181,3.29c-0.3-0.54-0.6-1.08-0.89-1.62l-1.78,0.311l-0.14-1.25l-1.99,0.14l0.12-1.88
	C1138.06,387.28,1138.841,386.98,1138.711,384.869z"/>
<path fill="#96937D" d="M1078.381,385.3l0.29,0.43L1078.381,385.3z"/>
<path fill="#96937D" d="M1082.39,391.27l0.28,0.42L1082.39,391.27z"/>
<path fill="#96937D" d="M1117.1,395.06c1.35,0,2.47,0.49,3.36,1.479c1.369,1.65,3.989,3.29,4.399,5.461
	c0.3,2.289-0.7,2.979-2.76,1.89C1119.26,401.42,1116.44,399.31,1117.1,395.06z"/>
<path fill="#96937D" d="M791.69,398.32l-0.25,0.51L791.69,398.32z"/>
<path fill="#96937D" d="M1157.57,401.5c1.91-0.101,3.23-0.23,4.59,1.31c1.851,2.04,5,4.51,4.21,7.57
	c-2.52,2.77-4.399-1.12-6.01-2.75C1158.62,405.53,1157.02,404.56,1157.57,401.5z"/>
<path fill="#96937D" d="M1136.9,403.159l0.05,0.04l0.49,0.41c0.71-0.03,1.43-0.08,2.15-0.149l-0.271,2.18
	c1.09-0.04,2.17-0.09,3.26-0.13l-0.33,2.39l2.24-0.72l-0.04,1.37c1.75,0.25,1.55,0.33,2.101,1.819c-1.87-0.39-5.26,1.091-5.2-1.819
	l-1.851-0.07l0.101-1.93c-2.82,0.149-2.42-0.5-3.55-2.57l0.14-0.15L1136.9,403.159z"/>
<path fill="#96937D" d="M787.73,406.31l-0.29,0.59L787.73,406.31z"/>
<path fill="#96937D" d="M1046.57,411.119l-0.279,0.601L1046.57,411.119z"/>
<path fill="#96937D" d="M0,412.49c1.061,4.49,1.24,8.811,1,13.4l-1-1.15V412.49z"/>
<path fill="#96937D" d="M1354,412.88v9.02l-0.88-1.05C1352.93,418.19,1353.61,415.55,1354,412.88z"/>
<path fill="#96937D" d="M1179.89,421.869c0.939-0.1,1.89-0.17,2.84-0.229c1.1,1.14,2.19,2.27,3.02,3.63
	c2.681,1.05,4.721,2.08,4.87,5.25c-0.899-0.04-1.8-0.08-2.689-0.12c-2.91-1.84-5.101-4.95-8.21-6.34
	C1179.76,423.329,1179.82,422.6,1179.89,421.869z"/>
<path fill="#96937D" d="M1153.56,424.31c1.27,0.33,2.48,0.729,3.67,1.29c0.7,2.2,2.93,1.99,4.22,3.77
	c1.28,1.2,0.74,2.431,0.83,4.011c-0.58-0.021-1.149-0.04-1.729-0.061v-1.54c-1.5-0.58-2.521-1.68-3.74-2.67
	c-1.78-1.63-3.75-2.35-4.46-4.84C1150.341,422.909,1152.76,424.159,1153.56,424.31z"/>
<path fill="#96937D" d="M592.32,458.31l0.23,0.479L592.32,458.31z"/>
<path fill="#96937D" d="M596.29,466.31l0.271,0.55L596.29,466.31z"/>
<path fill="#96937D" d="M334.37,468.26l0.22,0.5L334.37,468.26z"/>
<path fill="#96937D" d="M19.23,481.4l0.279,0.4L19.23,481.4z"/>
<path fill="#96937D" d="M929.841,483.55l-0.21,0.14l-0.21,0.13L929.841,483.55z"/>
<path fill="#96937D" d="M343.46,489.15l0.25,0.54L343.46,489.15z"/>
<path fill="#96937D" d="M1169.44,489.22l0.37,0.28L1169.44,489.22z"/>
<path fill="#96937D" d="M34.29,497.32l0.4,0.311L34.29,497.32z"/>
<path fill="#96937D" d="M1006.54,499.18l-0.229,0.479L1006.54,499.18z"/>
<path fill="#96937D" d="M164.78,501.39l-0.48,0.26L164.78,501.39z"/>
<path fill="#96937D" d="M1312.72,503.36l-0.5,0.32L1312.72,503.36z"/>
<path fill="#96937D" d="M1195.18,505.47l0.46,0.22L1195.18,505.47z"/>
<path fill="#96937D" d="M1309.72,505.31l-0.51,0.32L1309.72,505.31z"/>
<path fill="#96937D" d="M351.43,507.21l0.22,0.5L351.43,507.21z"/>
<path fill="#96937D" d="M357.48,521.11l0.25,0.561L357.48,521.11z"/>
<path fill="#96937D" d="M980.57,559.21l-0.22,0.5L980.57,559.21z"/>
<path fill="#96937D" d="M375.43,563.11l0.27,0.66L375.43,563.11z"/>
</svg>
