<?xml version="1.0" encoding="utf-8"?>
<!-- Generator: Adobe Illustrator 16.0.3, SVG Export Plug-In . SVG Version: 6.00 Build 0)  -->
<!DOCTYPE svg PUBLIC "-//W3C//DTD SVG 1.1//EN" "http://www.w3.org/Graphics/SVG/1.1/DTD/svg11.dtd">
<svg version="1.1" id="圖層_1" xmlns="http://www.w3.org/2000/svg" xmlns:xlink="http://www.w3.org/1999/xlink" x="0px" y="0px"
	 width="534px" height="82px" viewBox="0 0 534 82" enable-background="new 0 0 534 82" xml:space="preserve">
<path fill="#683302" d="M14.12,1.02c5-0.66,10.44,0.97,15.24,2.37C71.51,17.78,113.48,31.9,155.69,46.21
	c4.41,0.931,7.479,2.31,11.109,4.97c7.421,4.37,9.341,15.35,4.48,22.28c-4.16,5.86-11.14,8.74-18.26,8.11
	c-5.41,0.01-9.75-2.35-14.78-3.9C98.05,64.2,57.79,50.811,17.58,37.41c-4.93-1.8-9.59-3.76-12.92-8
	C0.69,24.65-1.03,18.18,0.92,12.19C2.4,5.99,8.14,2.13,14.12,1.02z"/>
<path fill="#683302" d="M512.23,1.46c5.57-1.4,11.46-0.34,15.95,3.29c6.59,5.04,7.3,15.64,2.81,22.31
	c-2.89,4.93-7.39,7.55-12.52,9.66C476.08,50.85,433.64,64.939,391.29,79.18c-8.02,3.42-18.35,3.78-25.3-2.199
	c-7.31-5.541-7.85-16.98-1.65-23.551c4.021-3.5,8.521-6.24,13.841-7.13c32.739-11.14,65.33-22.09,98.08-33.25
	C488.28,9.41,499.98,4.25,512.23,1.46z"/>
<path fill="#D3AE53" d="M19.49,8.46c6,1.42,11.87,3.28,17.68,5.37c38.101,12.91,76.17,25.85,114.29,38.699
	c4.92,1.521,11.33,3.16,14.181,7.9c2.68,5.291-0.29,10.66-5.45,12.83c-3.97,1.65-9.04,1.061-13-0.4
	c-39.73-13.299-79.53-26.5-119.26-39.79c-4.631-1.53-9.48-2.97-13.83-5.21c-5.761-3.18-8.83-10.8-4.63-16.53
	C11.81,8.92,16.2,7.38,19.49,8.46z"/>
<path fill="#D3AE53" d="M517.051,8.01c3.64,0.36,8.029,2.16,8.88,6.17c1.6,4.23-0.3,8.44-3.16,11.58c-2.53,2.56-6.63,3.81-9.93,5.06
	C470.6,44.98,428.31,58.98,386.06,73.109c-5.19,1.74-11.771,1.9-15.891-2.26c-3.27-2.949-3.85-8.199-0.979-11.64
	c3.66-4.069,8.35-5.11,13.34-6.69c38.65-13.009,77.17-26.149,115.8-39.2C504.41,11.22,510.69,9.01,517.051,8.01z"/>
</svg>
