{
    "asset" : {
        "generator" : "Khronos glTF Blender I/O v3.4.49",
        "version" : "2.0"
    },
    "scene" : 0,
    "scenes" : [
        {
            "name" : "Scene",
            "nodes" : [
                0,
                1
            ]
        }
    ],
    "nodes" : [
        {
            "mesh" : 0,
            "name" : "Curve",
            "rotation" : [
                0.7071068286895752,
                0,
                0,
                0.7071068286895752
            ],
            "translation" : [
                0,
                -0.0049356697127223015,
                -0.0049995859153568745
            ]
        },
        {
            "mesh" : 1,
            "name" : "Curve.001",
            "rotation" : [
                0.7071068286895752,
                0,
                0,
                0.7071068286895752
            ],
            "translation" : [
                0,
                -0.005064330063760281,
                0.0049995859153568745
            ]
        }
    ],
    "materials" : [
        {
            "doubleSided" : true,
            "name" : "SVGMat.001",
            "pbrMetallicRoughness" : {
                "baseColorFactor" : [
                    0.20863686501979828,
                    0.09989872574806213,
                    0.017641954123973846,
                    1
                ],
                "metallicFactor" : 0,
                "roughnessFactor" : 0.4000000059604645
            }
        },
        {
            "doubleSided" : true,
            "name" : "SVGMat.002",
            "pbrMetallicRoughness" : {
                "baseColorFactor" : [
                    0.4969329833984375,
                    0.22322796285152435,
                    0.006995410192757845,
                    1
                ],
                "metallicFactor" : 0,
                "roughnessFactor" : 0.4000000059604645
            }
        }
    ],
    "meshes" : [
        {
            "name" : "Curve",
            "primitives" : [
                {
                    "attributes" : {
                        "POSITION" : 0,
                        "TEXCOORD_0" : 1,
                        "NORMAL" : 2
                    },
                    "indices" : 3,
                    "material" : 0
                }
            ]
        },
        {
            "name" : "Curve.001",
            "primitives" : [
                {
                    "attributes" : {
                        "POSITION" : 4,
                        "TEXCOORD_0" : 5,
                        "NORMAL" : 6
                    },
                    "indices" : 7,
                    "material" : 1
                }
            ]
        }
    ],
    "accessors" : [
        {
            "bufferView" : 0,
            "componentType" : 5126,
            "count" : 2211,
            "max" : [
                0.05149045214056969,
                0,
                0.04685502126812935
            ],
            "min" : [
                -0.048330482095479965,
                0,
                -0.04767167195677757
            ],
            "type" : "VEC3"
        },
        {
            "bufferView" : 1,
            "componentType" : 5126,
            "count" : 2211,
            "type" : "VEC2"
        },
        {
            "bufferView" : 2,
            "componentType" : 5126,
            "count" : 2211,
            "type" : "VEC3"
        },
        {
            "bufferView" : 3,
            "componentType" : 5123,
            "count" : 4869,
            "type" : "SCALAR"
        },
        {
            "bufferView" : 4,
            "componentType" : 5126,
            "count" : 1050,
            "max" : [
                0.04934204742312431,
                0,
                0.044871482998132706
            ],
            "min" : [
                -0.04617553576827049,
                0,
                -0.045466888695955276
            ],
            "type" : "VEC3"
        },
        {
            "bufferView" : 5,
            "componentType" : 5126,
            "count" : 1050,
            "type" : "VEC2"
        },
        {
            "bufferView" : 6,
            "componentType" : 5126,
            "count" : 1050,
            "type" : "VEC3"
        },
        {
            "bufferView" : 7,
            "componentType" : 5123,
            "count" : 2406,
            "type" : "SCALAR"
        }
    ],
    "bufferViews" : [
        {
            "buffer" : 0,
            "byteLength" : 26532,
            "byteOffset" : 0,
            "target" : 34962
        },
        {
            "buffer" : 0,
            "byteLength" : 17688,
            "byteOffset" : 26532,
            "target" : 34962
        },
        {
            "buffer" : 0,
            "byteLength" : 26532,
            "byteOffset" : 44220,
            "target" : 34962
        },
        {
            "buffer" : 0,
            "byteLength" : 9738,
            "byteOffset" : 70752,
            "target" : 34963
        },
        {
            "buffer" : 0,
            "byteLength" : 12600,
            "byteOffset" : 80492,
            "target" : 34962
        },
        {
            "buffer" : 0,
            "byteLength" : 8400,
            "byteOffset" : 93092,
            "target" : 34962
        },
        {
            "buffer" : 0,
            "byteLength" : 12600,
            "byteOffset" : 101492,
            "target" : 34962
        },
        {
            "buffer" : 0,
            "byteLength" : 4812,
            "byteOffset" : 114092,
            "target" : 34963
        }
    ],
    "buffers" : [
        {
            "byteLength" : 118904,
            "uri" : "data:application/octet-stream;base64,"
        }
    ]
}
