<?xml version="1.0" encoding="utf-8"?>
<!-- Generator: Adobe Illustrator 16.0.3, SVG Export Plug-In . SVG Version: 6.00 Build 0)  -->
<!DOCTYPE svg PUBLIC "-//W3C//DTD SVG 1.1//EN" "http://www.w3.org/Graphics/SVG/1.1/DTD/svg11.dtd">
<svg version="1.1" id="圖層_1" xmlns="http://www.w3.org/2000/svg" xmlns:xlink="http://www.w3.org/1999/xlink" x="0px" y="0px"
	 width="354px" height="335px" viewBox="0 0 354 335" enable-background="new 0 0 354 335" xml:space="preserve">
<path fill="#7E5924" d="M169.59,0h6.1l0.75,0.45l0.68,0.47c5.95,4.14,8.989,11.13,8,18.319c-1.39,8.62-0.82,17.08-0.86,25.761
	c-0.029,28.34,0,56.67-0.039,85c0.039,2.13,0.119,4.26,0.219,6.38c1.99-1.32,3.91-2.63,5.73-4.19
	c21.609-19.72,43.43-39.279,65.109-58.92c2.931-2.56,6.311-5.66,10.07-6.859c3.11-0.83,7.17-0.851,10.291,0
	c5.399,1.76,8.239,8,7.209,13.38c-1.039,5.649-5.57,10.63-9.66,14.399c-18.109,16.21-35.959,32.721-54.1,48.891
	c-2.279,2.01-4.32,4.239-6.29,6.54c4.4,0.29,8.8,0.31,13.2,0.279c35.33-0.05,70.67-0.02,106-0.05c4.83,0.08,9.48-0.2,13.811,2.33
	c4.189,2.35,6.34,6.31,7.879,10.7c-0.17,4.92-0.619,9.89-4.119,13.68c-3.711,4.13-9.03,5.25-14.381,5.05
	c-4.06-0.26-8.109-0.649-12.189-0.62c-31.66,0.03-63.34-0.01-95,0.021c-6.82,0.04-13.41-0.45-20.189,0.68
	c4.369,5.141,9.319,9.61,14.01,14.49c18.24,18.08,36.27,36.4,54.47,54.53c4.319,4.35,9.89,8.26,11.58,14.46
	c1.22,4.67,1.399,10.97-1.81,14.939c-3.811,4.61-10.631,6.98-16.431,5.271c-4.56-1.23-8.58-3.771-11.89-7.11
	c-19.18-20.13-38.891-39.78-58.141-59.87c-5.17-5.12-9.439-10.43-15.26-14.8c-0.47,7.15-0.15,14.24-0.18,21.4
	c-0.051,26.34-0.01,52.66-0.03,79c-0.069,6.949,1.38,14.949-0.569,21.6c-1.4,4.51-4.83,7.33-8.891,9.4h-7.5
	c-3.6-1.69-6.85-3.711-9.04-7.131c-2.62-4.02-3.02-9.149-3.08-13.83c0.14-32.669,0-65.359,0.08-98.039
	c0.07-4.761,0.03-9.511-0.3-14.261c-4.68,3.33-8.63,7.391-12.87,11.221c-15.74,14.27-31.45,28.54-47.22,42.77
	c-6.13,5.37-10.61,12.01-18.93,14.03c-3.96,0.72-9.44,1.11-12.44-2.16c-4.14-4.14-4.28-11.26-2.15-16.399
	c2.6-6.29,8.53-10.171,13.38-14.601c16.67-15,33.27-30.08,49.93-45.08c3.61-3.109,7.19-6.189,10.22-9.89
	c-1.98,0.05-3.7-0.88-5.7-0.75c-28.01,0.16-56.04,0.04-84.05,0.09c-9.55,0.07-19.01-0.4-28.53,0.54C8.78,182.4,2.8,176.03,0,169.52
	v-7.06c2.63-5.15,6.55-10.3,12.29-12.09c4.77-0.891,9.87-0.381,14.71-0.45c27,0.01,54,0,81,0c7.99-0.141,15.6,0.58,23.55-0.51
	c-6.46-7.49-13.78-14.21-20.52-21.44C93.02,109.32,74.54,91.13,56.71,72.3c-6.19-6.69-13.73-12.061-17.36-20.66
	c-2.55-5.63-1.84-12.31,2.35-16.95c2.6-3,6.39-3.979,10.24-3.72c3.76,0.21,6.62,2.09,9.49,4.32c-0.88,2.12-1.73,4.239-2.53,6.39
	c-2.75-1.37-5.72-3.12-8.78-3.61c-3.97,0.891-5.96,5.57-4.49,9.24c2.38,6.53,8.21,12.2,13.05,17.03
	c17.15,16.87,33.79,34.2,50.52,51.46c9.06,9.28,18.37,18.31,27.3,27.71c4.17,4.2,8.6,7.87,11.67,13.04
	c-9.69,0.58-19.41-0.16-29.13,0.06c-22.01,0.351-44.03-0.18-66.04,0.15c-10-0.021-20,0.13-30-0.16c-4.67,0.05-9.36-0.12-12.86,3.5
	c-3.75,3.66-3.41,10.771,1.75,12.96c4.92,1.73,10.94,0.91,16.11,1.01c35.33-0.06,70.67-0.029,106-0.029
	c6.39-0.021,12.76-0.23,19.14,0.35c-3.09,4.55-7.21,7.88-11.36,11.38c-21.9,19.75-43.81,39.55-65.69,59.34
	c-3.18,3.051-7.84,6.771-8.82,11.24c-0.64,2.61,0.5,6.92,3.8,6.82c4.85,0.25,8.95-3.78,12.28-6.82
	c23.28-21.39,46.89-42.439,70.15-63.85c2.45-2.33,5.28-4.09,8.21-5.74c0.4,5.08,0.4,10.15,0.29,15.24
	c-0.09,36,0.1,72.01-0.07,108.01c0.08,4.189,0.09,9.22,2.01,13.029c1.42,2.841,4.55,5.36,7.88,4.87c2.93-0.659,4.49-3.27,4.96-6.06
	c0.88-5.82,0.13-11.96,0.25-17.85c0.31-39.681-0.15-79.3,0.18-118.931c5.38,4.591,9.64,10.101,14.569,15.131
	c11.83,12.17,23.781,24.239,35.791,36.229c10.959,11.71,22.42,22.92,33.56,34.46c3.07,3.08,6.39,6.63,10.96,7.19
	c2.92,0.34,6.53-0.051,8.16-2.86c2.3-4.57,0.46-9.98-3.07-13.36c-4.959-4.739-10.02-9.319-14.699-14.35
	c-19.811-19.85-39.461-39.87-59.25-59.75c-4.431-4.49-9.101-8.7-13.15-13.57c4.641-0.2,9.279-0.25,13.92-0.189
	c40.66,0.1,81.34-0.011,122,0.05c5.02-0.061,10.561,0.61,15.439-0.67c5.48-1.9,6.101-10.21,1.9-13.73
	c-2.92-2.569-7.609-2.76-11.311-2.899c-38.649,0.13-77.369,0.02-116.029,0.06c-7.189-0.03-14.26,0.41-21.439-0.27
	c2.89-5.36,7.64-8.011,11.969-12c17.301-15.7,34.65-31.351,51.921-47.09c4.8-4.391,10.25-8.591,14.28-13.711
	c1.459-1.96,3.27-4.819,2.779-7.369c-0.72-2.71-3.72-4-6.33-3.391c-3.05,0.7-5.84,3-8.16,5.021
	c-22.459,20.55-45.189,40.85-67.789,61.229c-5.451,4.771-9.641,10.3-15.971,14.04c-0.52-9.41,0.06-18.84-0.19-28.27
	c0.08-24.33-0.04-48.67,0.11-73c0.05-10.37-0.46-20.58,0.28-30.931c0.149-3.729,0.56-8.5-1.8-11.659
	c-1.13-1.891-3.66-1.66-5.56-1.48c-3.64,0.53-6.56,3.06-7.43,6.66c-1.19,5.26-0.65,11.04-0.72,16.41c0.05,33.33,0.01,66.67,0.06,100
	c0.08,4.75,0.01,9.489-0.33,14.229c-1.66-1.3-3.33-2.56-4.9-3.99C127.82,112.08,98.56,82.87,69.47,53.54
	c-2.91-3.061-6.93-6.011-8.78-9.84c-0.4-2.261,1.37-5.15,2.13-7.271c3.8,3.13,7.1,6.71,10.49,10.26
	c13.65,14.021,27.73,27.61,41.36,41.65c11.53,11.46,23.06,22.939,34.38,34.62c1.84,1.83,3.8,3.51,5.79,5.189
	c0.32-6.39,0.15-12.76,0.16-19.149c-0.02-30.011,0.06-60.04-0.05-90.05c0.09-3.98,0.37-7.891,2.74-11.25
	C160.66,3.52,164.93,1.7,169.59,0z"/>
<path fill="#BB8214" d="M170.1,7.93c1.9-0.18,4.43-0.41,5.56,1.48c2.359,3.159,1.949,7.93,1.8,11.659
	C176.72,31.42,177.23,41.63,177.18,52c-0.15,24.33-0.03,48.67-0.11,73c0.25,9.43-0.33,18.859,0.19,28.27
	c6.33-3.74,10.52-9.27,15.971-14.04c22.6-20.38,45.33-40.68,67.789-61.229c2.32-2.021,5.11-4.32,8.16-5.021
	c2.61-0.609,5.61,0.681,6.33,3.391c0.49,2.55-1.32,5.409-2.779,7.369c-4.03,5.12-9.48,9.32-14.28,13.711
	c-17.271,15.739-34.62,31.39-51.921,47.09c-4.329,3.989-9.079,6.64-11.969,12c7.18,0.68,14.25,0.239,21.439,0.27
	c38.66-0.04,77.38,0.07,116.029-0.06c3.701,0.14,8.391,0.33,11.311,2.899c4.2,3.521,3.58,11.83-1.9,13.73
	c-4.879,1.28-10.42,0.609-15.439,0.67c-40.66-0.061-81.34,0.05-122-0.05c-4.641-0.061-9.279-0.011-13.92,0.189
	c4.05,4.87,8.72,9.08,13.15,13.57c19.789,19.88,39.439,39.9,59.25,59.75c4.68,5.03,9.74,9.61,14.699,14.35
	c3.53,3.38,5.37,8.79,3.07,13.36c-1.63,2.81-5.24,3.2-8.16,2.86c-4.57-0.561-7.89-4.11-10.96-7.19
	c-11.14-11.54-22.601-22.75-33.56-34.46c-12.01-11.99-23.961-24.06-35.791-36.229c-4.93-5.03-9.189-10.54-14.569-15.131
	c-0.33,39.631,0.13,79.25-0.18,118.931c-0.12,5.89,0.63,12.029-0.25,17.85c-0.47,2.79-2.03,5.4-4.96,6.06
	c-3.33,0.49-6.46-2.029-7.88-4.87c-1.92-3.81-1.93-8.84-2.01-13.029c0.17-36-0.02-72.01,0.07-108.01
	c0.11-5.09,0.11-10.16-0.29-15.24c-2.93,1.65-5.76,3.41-8.21,5.74c-23.26,21.41-46.87,42.46-70.15,63.85
	c-3.33,3.04-7.43,7.07-12.28,6.82c-3.3,0.1-4.44-4.21-3.8-6.82c0.98-4.47,5.64-8.189,8.82-11.24
	c21.88-19.79,43.79-39.59,65.69-59.34c4.15-3.5,8.27-6.83,11.36-11.38c-6.38-0.58-12.75-0.37-19.14-0.35
	c-35.33,0-70.67-0.03-106,0.029c-5.17-0.1-11.19,0.721-16.11-1.01c-5.16-2.189-5.5-9.3-1.75-12.96c3.5-3.62,8.19-3.45,12.86-3.5
	c10,0.29,20,0.14,30,0.16c22.01-0.33,44.03,0.2,66.04-0.15c9.72-0.22,19.44,0.521,29.13-0.06c-3.07-5.17-7.5-8.84-11.67-13.04
	c-8.93-9.4-18.24-18.43-27.3-27.71C92.47,98.54,75.83,81.21,58.68,64.34c-4.84-4.83-10.67-10.5-13.05-17.03
	c-1.47-3.67,0.52-8.35,4.49-9.24c3.06,0.49,6.03,2.24,8.78,3.61c0.8-2.15,1.65-4.27,2.53-6.39c0.47,0.38,0.93,0.76,1.39,1.14
	c-0.76,2.12-2.53,5.01-2.13,7.271c1.85,3.829,5.87,6.779,8.78,9.84c29.09,29.33,58.35,58.54,87.31,87.699
	c1.57,1.431,3.24,2.69,4.9,3.99c0.34-4.74,0.41-9.479,0.33-14.229c-0.05-33.33-0.01-66.67-0.06-100c0.07-5.37-0.47-11.15,0.72-16.41
	C163.54,10.99,166.46,8.46,170.1,7.93z"/>
</svg>
