<?xml version="1.0" encoding="utf-8"?>
<!-- Generator: Adobe Illustrator 16.0.3, SVG Export Plug-In . SVG Version: 6.00 Build 0)  -->
<!DOCTYPE svg PUBLIC "-//W3C//DTD SVG 1.1//EN" "http://www.w3.org/Graphics/SVG/1.1/DTD/svg11.dtd">
<svg version="1.1" id="圖層_1" xmlns="http://www.w3.org/2000/svg" xmlns:xlink="http://www.w3.org/1999/xlink" x="0px" y="0px"
	 width="728px" height="795px" viewBox="0 0 728 795" enable-background="new 0 0 728 795" xml:space="preserve">
<path fill="#794B21" d="M310.46,0h9.13l0.801,0.42l0.729,0.43c2.93,1.89,4.66,3.79,5.92,7.07c1.931,5.13,4.92,9.56,7.971,14.069
	c41.949,64.4,83.8,128.851,125.75,193.29c4.63,7.9,10.87,14.58,15.46,22.5c11.88,18.051,24.38,36.021,35.45,54.65
	c3.29,4.64,6.51,9.189,9.22,14.21c5.24,7.899,10.45,15.83,15.77,23.67c10.5,16.72,21.38,33.2,32.261,49.67
	c4.859,8.41,11.119,15.68,15.359,24.47c-3.05,0.48-6.09,1.23-9.03,2.181c-1.489-4.21-3.93-7.801-6.46-11.431
	c-31.21-47.84-62.26-95.72-93.39-143.59c-8.13-11.97-15.67-24.31-23.63-36.38C411.24,152.81,370.58,90.42,330,28.02
	c-1.68-2.64-3.34-5.29-5.21-7.8c-2.59,1.88-5.029,4.18-7.83,5.66c-2.5,1.32-5.27,2.25-7.91,3.25
	c5.16,8.66,11.101,16.84,16.431,25.399c20.31,31.021,40.62,62.03,60.899,93.07c8.58,13.68,17.75,26.98,26.42,40.601
	c17.551,27.029,35.61,54.119,52.971,81.029c12.83,19.811,25.8,39.51,38.8,59.2c19.24,29.689,38.49,59.38,57.88,88.97
	c-1.68,2.41-3.33,4.54-5.91,6.061c-4.579-7.41-9.76-14.41-14.25-21.881c-3.779-5.52-7.529-11.029-11.1-16.689
	c-7.29-12.24-15.66-23.8-23.18-35.9c-4.04-6.279-8.24-12.45-12.101-18.85c-3.63-6.12-8.12-11.61-11.479-17.9
	c-1.61-2.91-3.3-5.76-5.101-8.55c-8.38-13.529-17.34-26.689-26.04-40.01c-1.38-2.12-2.93-3.92-4.8-5.62
	c-1.029-2.439-2.029-4.84-3.43-7.1c-26.521-40.88-53.011-81.58-79.78-122.29c-3.94-5.95-7.64-12.021-11.84-17.79
	c-1.17-1.73-2.26-3.5-3.36-5.28c-7.38-11.83-15.2-23.39-22.729-35.13c-1.45-2.19-3.15-4.17-4.761-6.24
	c-2.489-3.81-4.64-7.819-7.26-11.56c-6.22-9.15-11.75-18.771-18.34-27.65c-2.28-3.16-3.76-6.53-2.42-10.45
	C296.86,6.86,303.16,2.48,310.46,0z"/>
<path fill="#9D6436" d="M313.34,7.28c2.44-0.529,4.83,0.171,6.41,2.15c0.73,2.35-0.41,4.69-1.819,6.53
	c-2.311,2.88-5.82,4.87-9.45,5.49c-2.26,0.38-4.57-0.171-6.17-1.881c-1.011-2.68,0.12-5.33,1.92-7.35
	C306.59,9.66,309.96,7.98,313.34,7.28z"/>
<path fill="#BF8936" d="M324.79,20.22c1.87,2.51,3.53,5.16,5.21,7.8c40.58,62.4,81.24,124.79,121.771,187.21
	c7.96,12.07,15.5,24.41,23.63,36.38c31.13,47.87,62.18,95.75,93.39,143.59c2.53,3.63,4.971,7.221,6.46,11.431
	c-4.989,2.54-9.31,6.43-12.8,10.77c-19.39-29.59-38.64-59.28-57.88-88.97c-13-19.69-25.97-39.39-38.8-59.2
	c-17.36-26.91-35.42-54-52.971-81.029c-8.67-13.62-17.84-26.921-26.42-40.601c-20.279-31.04-40.59-62.05-60.899-93.07
	c-5.33-8.56-11.271-16.739-16.431-25.399c2.641-1,5.41-1.93,7.91-3.25C319.76,24.4,322.2,22.1,324.79,20.22z"/>
<path fill="#082D17" d="M322.59,64.23c1.61,2.07,3.311,4.05,4.761,6.24c-7.5,3.53-13.96,8.41-20.66,13.22
	c-11.04,7.98-21.54,17.21-31.78,26.2c-23.49,21.41-42.15,46.08-59.36,72.65c-14.84,22.939-28.34,46.77-43.489,69.52
	c-9.94,15.16-20.67,29.84-32.04,43.96c-11.021,12.99-21.05,25.31-35.96,34.05c-6.141,4.03-12.88,6.05-20.011,7.49
	c1.511,2.9,3.221,5.61,5.131,8.25c7.439,10.53,14.34,21.45,21.93,31.87c4.17-0.601,8.1-1.641,11.77-3.771
	c13.87-7.63,26.49-18.239,38.061-28.979c14.01-12.36,26.67-26.21,37.72-41.271c14.12-19.539,24.021-39.989,36.09-60.92
	c6.73-12.739,13.94-25.17,21.641-37.35c12.27-19.85,24.859-39.12,40.399-56.59c5.26-5.811,10.26-11.67,16.101-16.94
	c8.109-7.31,16.729-14.09,25.779-20.199c3.57-2.46,7.41-4.391,11.41-6.061c1.101,1.78,2.19,3.55,3.36,5.28
	c-5.53,3.71-11.351,6.88-16.71,10.84c-8.37,6.1-16.67,12.69-23.9,20.12c-10.479,10.899-20.45,22.46-29.09,34.899
	c-6.47,9.28-12.84,18.631-18.7,28.32c-9.02,13.91-17.35,28.26-25.069,42.93c-9.86,16.771-18.431,34.601-29.33,50.65
	c-12.351,19.59-28.141,36.27-45.2,51.78c-11.4,10.479-23.181,20.619-36.641,28.39c-4.09,2.33-8.6,4.05-12.88,6.08
	c16.96,25.33,34.4,50.46,51.48,75.729c6.729,9.5,12.96,19.36,19.81,28.78l0.32,0.46c10.28,15.82,21.19,31.23,31.63,46.95
	c1.09,1.42,2.29,3.62,4.03,4.26c2.3-0.109,4.67-1.16,6.76-2.08c7.771-3.59,15.28-8.04,22.65-12.38
	c12.58-7.28,24.699-15.729,35.359-25.64c8.33-7.311,16.181-15.181,23.53-23.47c8.91-10.79,16.68-22.45,23.12-34.86
	c4.36-8.46,8.77-16.74,12.47-25.51c6.88-16.25,12.65-33.431,20.811-49.2c4.55-8.82,8.739-17.84,13.55-26.521
	c14.34-25.279,31.75-49.09,52.28-69.689c4.64-4.89,9.49-9.48,14.77-13.66c1.87,1.7,3.42,3.5,4.8,5.62
	c-8.359,6.03-15.63,14.36-22.689,21.89c-15.061,16.181-27.57,34.09-39.16,52.851c-5.9,9.68-10.54,20.13-15.851,30.159
	c-11.71,22.631-18.47,47.021-30.489,69.5c-9.221,18.78-20.83,37.49-35.71,52.32c-14.141,14.86-29.71,28.061-47.271,38.72
	c-6.46,3.92-12.95,7.79-19.55,11.44c-5.03,2.83-10.36,4.85-15.53,7.41c5.29,8.29,11.24,16.149,16.5,24.47
	c1.88,2.63,3.32,5.63,6.851,6.16c6.05,1.05,12.75-0.34,18.72-1.54c13.93-2.99,26.51-9.6,37.83-18.12
	c10.28-7.93,20.26-15.33,29.13-24.88c8.64-8.95,15.97-18.85,22.68-29.31c9.67-15.66,18.42-31.73,25.07-48.921
	c6.89-18.93,12.9-38.699,21.04-56.96c9.56-21.71,21.271-43.31,36.18-61.819c6.86-9.021,14.99-17.08,23.671-24.34
	c4.42-3.761,9.449-6.45,14.619-9.021c1.801,2.79,3.49,5.64,5.101,8.55c-5.91,2.3-11.42,4.61-15.75,9.431
	c-5.38,6.05-11.8,10.85-16.681,17.35c-6.399,6.8-11.779,14.37-16.76,22.25c-2.39,3.82-3.609,7.99-6.49,11.52
	c-1.899,2.351-2.939,4.381-3.71,7.32c-0.88,3.59-3.17,5.88-5.01,8.97c-2.76,4.48-3.09,9.521-5.93,14.011
	c-8.83,13.64-11.53,31.989-18.11,45.81c-3.78,10.78-7.729,21.86-13.15,31.93c-4.97,9.82-9.77,19.98-15.939,28.99
	c-2.521,4.71-6.01,8.66-8.92,13.101c-3.23,5.18-7.7,9.76-11.97,14.09c-2.341,2.37-4.171,5.1-6.561,7.42
	c-3.52,3.479-7.51,6.51-11.17,9.85c-2.64,2.42-4.74,5.181-7.76,7.21c-5.15,3.561-10.601,6.641-15.62,10.4
	c-4.21,3.17-8.94,4.96-13.51,7.52c-4.521,2.62-10.011,3.38-14.98,5.141c-3.2,1.21-6.04-0.15-9.43,0.41
	c-7.141,1.06-14.601,1.55-21.8,0.79c-2.141-0.24-3.171-2.011-4.351-3.57c-2.12-3.17-4.17-6.36-6.6-9.311
	c-13.65,8.5-29.13,13.48-45.07,15.341c-5.86,0.68-12.79,2.64-18.56,1.199c-2.15-0.409-3.28-1.85-4.45-3.54
	C118.14,511.23,69.59,436.21,21.51,361.48C14.28,350.47,7.28,339.3,0,328.32v-4.41c5.12-5.26,12.91-8.14,19.271-11.67
	c19.52-11.21,40.58-21.3,58.09-35.88c9.88-7.72,17.939-18.59,28.18-25.819c6.12-4.24,13.21-5.061,20.47-4.511
	c4.5,0.28,8.58,3.341,10.75,7.19c4.011,7.04,6.37,14.56,9.961,21.75c25.88-33.42,46.069-73.31,70.229-108.02
	c11.41-16.961,24.03-33.07,37.93-48.061c11.7-12.24,24.891-23.3,37.94-34.07C302.33,77.43,312.12,70.22,322.59,64.23z"/>
<path fill="#7DA542" d="M327.35,70.47c7.529,11.74,15.35,23.3,22.729,35.13c-4,1.67-7.84,3.601-11.41,6.061
	c-9.05,6.109-17.67,12.89-25.779,20.199c-5.841,5.271-10.841,11.13-16.101,16.94c-15.54,17.47-28.13,36.74-40.399,56.59
	c-7.7,12.18-14.91,24.61-21.641,37.35c-12.069,20.931-21.97,41.381-36.09,60.92c-11.05,15.061-23.71,28.91-37.72,41.271
	c-11.57,10.74-24.19,21.35-38.061,28.979c-3.67,2.13-7.6,3.17-11.77,3.771c-7.59-10.42-14.49-21.34-21.93-31.87
	c-1.91-2.64-3.62-5.35-5.131-8.25c7.131-1.44,13.87-3.46,20.011-7.49c14.91-8.74,24.939-21.06,35.96-34.05
	c11.37-14.12,22.1-28.8,32.04-43.96c15.149-22.75,28.649-46.58,43.489-69.52c17.21-26.57,35.87-51.24,59.36-72.65
	c10.24-8.99,20.74-18.22,31.78-26.2C313.39,78.88,319.85,74,327.35,70.47z"/>
<path fill="#F55B03" d="M353.44,110.88c4.2,5.77,7.899,11.84,11.84,17.79c26.77,40.71,53.26,81.41,79.78,122.29
	c1.4,2.26,2.4,4.66,3.43,7.1c-5.279,4.18-10.13,8.771-14.77,13.66c-20.53,20.6-37.94,44.41-52.28,69.689
	c-4.811,8.681-9,17.7-13.55,26.521c-8.16,15.77-13.931,32.95-20.811,49.2c-3.7,8.77-8.109,17.05-12.47,25.51
	c-6.44,12.41-14.21,24.07-23.12,34.86c-7.35,8.289-15.2,16.159-23.53,23.47c-10.66,9.91-22.779,18.359-35.359,25.64
	c-7.37,4.34-14.88,8.79-22.65,12.38c-2.09,0.92-4.46,1.971-6.76,2.08c-1.74-0.64-2.94-2.84-4.03-4.26
	c-10.439-15.72-21.35-31.13-31.63-46.95l-0.32-0.46c-6.85-9.42-13.08-19.28-19.81-28.78c-17.08-25.27-34.521-50.399-51.48-75.729
	c4.28-2.03,8.79-3.75,12.88-6.08c13.46-7.771,25.24-17.91,36.641-28.39c17.06-15.511,32.85-32.19,45.2-51.78
	c10.899-16.05,19.47-33.88,29.33-50.65c7.72-14.67,16.05-29.02,25.069-42.93c5.86-9.689,12.23-19.04,18.7-28.32
	c8.64-12.439,18.61-24,29.09-34.899c7.23-7.43,15.53-14.021,23.9-20.12C342.09,117.76,347.91,114.59,353.44,110.88z"/>
<path fill="#FBAC02" d="M345.5,191.38c1.271,1.479,2.17,3.41,2.971,5.189c10.34,24.62,20.85,49.17,31.189,73.79
	c3.311,7.94,7.04,15.71,10.45,23.601c0.81,2.06,1.85,4.479,1.71,6.72c-0.98,2.45-3.19,2.59-5.47,2.16
	c-2.971-3.261-4.08-8.38-5.851-12.37c-6.31-14.98-12.66-29.95-19.029-44.91c-21.671-3.54-43.29-7.42-64.96-10.99
	c-3.23-0.569-6.82-0.939-9.811-2.34c-1.33-1.47-1.16-3.17-0.51-4.91c2.32-1.42,5.25-0.77,7.78-0.46
	c6.21,1.061,12.329,2.431,18.6,3.07c-1.81-7.55-4.08-14.88-6.26-22.31c-0.601-2.271-1.391-4.92-1.03-7.271
	c1.13-1.86,3.66-2.89,5.29-0.97c2.2,3.13,2.87,7.52,3.979,11.14c2.051,6.95,3.641,14.03,6.08,20.83
	c5.57,1.33,11.21,2.09,16.841,3.03c6.819,1.07,13.529,2.56,20.39,3.37c-3.43-9.78-8.061-19.11-11.88-28.73
	c-1.84-4.939-4.9-9.819-5.78-15C339.66,190.88,343.34,190.48,345.5,191.38z"/>
<path fill="#7DA542" d="M121.06,253.03c2.189-0.119,4.76-0.06,6.56,1.351c2.9,2.56,3.87,6.91,2.25,10.45
	c-2.16,5.149-6.66,9.56-10.18,13.87c-8.63,10.42-20.96,16.64-32.22,23.789c-6.86,4.141-12.961,10.181-16.7,17.29
	c-2.29,4.48-1.54,9.3,0.989,13.49c4.521,7.36,10.131,14.11,14.421,21.65c-9.5,7.22-20.21,14.02-30.891,19.38
	c-3.99,1.75-9.51,4.62-13.91,3.52c-1.939-1.77-3.35-4.27-4.75-6.47c-9.359-14.89-19.17-29.5-28.47-44.42
	c3.83-2.641,7.99-4.59,12.13-6.67c21.37-12.2,42.61-22.181,61.91-38.04c8.95-6.9,15.8-15.45,24.19-22.86
	C110.48,255.74,115.59,253.43,121.06,253.03z"/>
<path fill="#7DA542" d="M453.29,263.68c8.7,13.32,17.66,26.48,26.04,40.01c-5.17,2.57-10.199,5.26-14.619,9.021
	c-8.681,7.26-16.811,15.319-23.671,24.34c-14.909,18.51-26.62,40.109-36.18,61.819c-8.14,18.261-14.15,38.03-21.04,56.96
	c-6.65,17.19-15.4,33.261-25.07,48.921c-6.71,10.46-14.04,20.359-22.68,29.31c-8.87,9.55-18.85,16.95-29.13,24.88
	c-11.32,8.521-23.9,15.13-37.83,18.12c-5.97,1.2-12.67,2.59-18.72,1.54c-3.53-0.53-4.971-3.53-6.851-6.16
	c-5.26-8.32-11.21-16.18-16.5-24.47c5.17-2.561,10.5-4.58,15.53-7.41c6.6-3.65,13.09-7.521,19.55-11.44
	c17.561-10.659,33.13-23.859,47.271-38.72c14.88-14.83,26.489-33.54,35.71-52.32c12.02-22.479,18.779-46.869,30.489-69.5
	c5.311-10.029,9.95-20.479,15.851-30.159c11.59-18.761,24.1-36.67,39.16-52.851C437.66,278.04,444.93,269.71,453.29,263.68z"/>
<path fill="#316940" d="M135.93,269.92c1.97,3.53,4.05,7.29,4.979,11.24c0.59,1.899-1.32,3.949-2.33,5.43
	c-8.57,10.49-17.17,20.62-27.35,29.63c-4.94,4.109-10.641,7.79-16.41,10.6c-4.32,2.03-9.811,3.98-14.61,3.061
	c-3.43-0.79-4.149-4.5-2.68-7.33c4.2-7.761,10.81-12.44,18.28-16.73c9.8-5.96,19.14-11.489,27.029-19.979
	C127.87,281.03,131.62,275.32,135.93,269.92z"/>
<path fill="#316940" d="M240.35,273.34c2.52-0.851,5.67-0.19,8.239,0.27c14.69,2.99,29.601,4.57,44.301,7.48
	c6.449,1.07,12.89,2.14,19.319,3.32c5.851,0.88,11.7,1.659,17.45,3.079c5.28,1.32,10.59,1.23,15.91,2.16
	c4.01,0.7,7.9,1.66,11.82,2.71c-7.74,1.44-15.15,3.88-22.601,6.391c0.59-0.881,1.17-1.771,1.75-2.65
	c-22.27-3.229-44.41-7.34-66.63-10.939c-7.92-1.051-15.75-3.181-23.7-3.671c-0.51,5.57-0.29,10.94-0.27,16.511
	c-0.05,22,0.14,44,0.229,66c-0.06,5.819-0.21,11.569,0.681,17.34c-3.11,5.81-5.931,11.649-7.221,18.16
	c-0.97-1.79-1.56-3.341-1.46-5.431c0.141-9.359,0.11-18.71-0.069-28.069c-0.08-28.681-0.08-57.391-0.21-86.061
	C238.05,277.33,237.82,274.88,240.35,273.34z"/>
<path fill="#32AF64" d="M246.21,281.49c7.95,0.49,15.78,2.62,23.7,3.671c22.22,3.6,44.36,7.71,66.63,10.939
	c-0.58,0.88-1.16,1.77-1.75,2.65c-6.49,2.26-12.47,6.189-18.37,9.67c-16.39,10.76-31.47,23.76-44.72,38.21
	c-9.56,10.64-18.229,21.989-24.85,34.71c-0.891-5.771-0.74-11.521-0.681-17.34c-0.09-22-0.279-44-0.229-66
	C245.92,292.43,245.7,287.06,246.21,281.49z"/>
<path fill="#FBAC02" d="M357.39,292.36c3.989,1.061,8.25,1.96,11.3,4.95c3.53,3.28,4.99,8.02,4.479,12.75
	c-0.59,10.75-5.13,19.66-10.319,28.83c-6.08,10.16-13.79,19.71-21.561,28.63c-5.2-4.54-9.069-10.07-13.51-15.3
	c-4.21-5.12-8.37-10.271-12.64-15.34c-3.221-3.801-6.181-8.141-9.811-11.46c-1.859,1.18-3.66,2.479-5.46,3.76
	c-6.939,5.27-13.87,11.899-19.63,18.439c-1.42,1.74-2.77,3.54-4.12,5.351c10.811,14.29,22.53,27.95,32.97,42.51
	c-3.8,4.64-8.909,7.021-14.02,10.521c-10.09,6.229-21.69,12.439-33.49,14.35c-6.17,0.99-12.96,0.2-17.64-4.28
	c-4.12-4.47-4.23-10.84-4.311-16.569c1.29-6.511,4.11-12.351,7.221-18.16c6.62-12.721,15.29-24.07,24.85-34.71
	c13.25-14.45,28.33-27.45,44.72-38.21c5.9-3.48,11.88-7.41,18.37-9.67C342.24,296.24,349.65,293.8,357.39,292.36z"/>
<path fill="#316940" d="M274.04,295.81c9.58,1.561,19.181,2.93,28.78,4.37c2.21,0.39,4.27,0.75,6.16,2.05
	c-0.021,1.62,0.28,2.6-1.33,3.521c-3.94,0.3-8.061-0.851-11.96-1.391c-6.641-1.04-13.29-2.05-19.96-2.95
	c-2.44-0.38-5.13-0.71-7.4-1.729c-1.439-0.601-1.5-2.05-1.13-3.37C269.22,294.94,271.79,295.58,274.04,295.81z"/>
<path fill="#316940" d="M254.09,296.96c1.261,0.04,2.511,0.13,3.75,0.29c1.86,6.26,0.881,12.09,1.46,18.76
	c0.48,5.359,0.78,10.649,0.891,16.029c0.07,4.221,1,8.54,0.63,12.74c0,1.9-2.45,1.98-3.75,2.69c-2.71-8.4-1.74-18.38-2.51-27.19
	C253.85,312.51,253.48,304.75,254.09,296.96z"/>
<path fill="#316940" d="M267.41,310.289c4.67-0.329,9.61,1.271,14.2,2.08c3.32,0.761,7.21,1.141,10.18,2.87
	c1.601,1.011,1.46,2.63-0.06,3.66c-4.391,0.62-9.311-1.149-13.65-1.899c-4.439-1.051-8.55-0.931-12.149-4.061
	C266.37,312.03,266.87,311.14,267.41,310.289z"/>
<path fill="#316940" d="M267.84,325.03c3.7-0.109,9.25-0.93,11.98,2.21c0.09,1.181,0.11,2.36,0.07,3.55
	c-4.061-0.02-8.011-0.46-11.801-2.01C267.99,327.53,267.91,326.28,267.84,325.03z"/>
<path fill="#652F23" d="M305.33,325.42c3.63,3.319,6.59,7.659,9.811,11.46c4.27,5.069,8.43,10.22,12.64,15.34
	c4.44,5.229,8.31,10.76,13.51,15.3c3.101,3.13,7.04,7.04,7.88,11.51c1.17,5.21-0.51,10.51-3.159,14.99
	c-3.011,4.86-7.851,8.65-12.961,11.1c-4.93,2.44-11.079,2.28-15.989-0.119c-3.771-1.83-5.74-6.171-7.971-9.521
	c-10.439-14.56-22.159-28.22-32.97-42.51c1.351-1.811,2.7-3.61,4.12-5.351c4.94,4.431,8.13,9.65,12.38,14.761
	c6.37,7.72,12.22,15.87,18.67,23.52c3.11-4.29,5.76-9.439,10.34-12.26c3.16-1.94,6.551-3.46,9.71-5.41
	c-10.159-13.26-21.5-25.65-31.47-39.05C301.67,327.9,303.47,326.6,305.33,325.42z"/>
<path fill="#9D6436" d="M299.87,329.18c9.97,13.399,21.311,25.79,31.47,39.05c-3.159,1.95-6.55,3.47-9.71,5.41
	c-4.58,2.82-7.229,7.97-10.34,12.26c-6.45-7.649-12.3-15.8-18.67-23.52c-4.25-5.11-7.439-10.33-12.38-14.761
	C286,341.079,292.93,334.449,299.87,329.18z"/>
<path fill="#FBAC02" d="M201.1,346.81c1.489,1.71,2.08,4.35,2.68,6.49c5.05,21.17,10.34,42.29,15.51,63.439
	c1.72,6.61,2.931,13.261,5.16,19.74c21,5.85,42.18,11.1,63.22,16.82c4.551,1.319,9.681,1.95,13.891,4.14
	c2.25,0.98,1.939,5.53-0.7,5.64c-4.91,0.4-10.24-1.77-14.99-2.939c-32.92-8.771-65.88-17.4-98.81-26.13
	c-3.83-1.07-8.04-1.71-11.61-3.48c-2.55-0.79-1.8-5.91,1.021-5.92c4.89-0.12,9.979,2.101,14.729,3.16
	c8.271,1.97,16.39,4.79,24.771,6.15c-1.49-8.99-4.36-17.721-6.311-26.631c-1.189-4.31-1.65-9.27-3.76-13.229
	c-4.86-3.13-11.17-4.25-16.55-6.37c-5.391-2.14-11.74-3.29-16.561-6.53c-2.74-2.279-0.88-3.88,0.26-6.359
	c10.521,2.52,20.33,7.52,30.87,10.109c-1.13-6.56-3.05-12.859-4.55-19.33c-1.43-6.35-3.63-11.84-3.35-18.47
	C197.85,346.55,199.28,345.56,201.1,346.81z"/>
<path fill="#F55B03" d="M90.71,361.18c28.65,42.03,57.33,84.1,85.96,126.149c8.561,12.9,17.78,25.4,26.061,38.48
	c-2.9,2.15-5.87,4.17-9.061,5.87c-10.239,5.56-20.96,10.41-32.04,14c-3.5,1.17-7.09,1.6-10.739,1.97c-1.87-2.35-3.69-4.72-5.28-7.27
	C112.51,488.76,79.11,437.4,45.99,385.8c5.32-2.42,10.76-4.181,15.93-6.88c5.801-3.011,11.37-6.601,16.891-10.101
	C82.89,366.24,86.52,363.32,90.71,361.18z"/>
<path fill="#BF8936" d="M331.41,376.38c5-1.96,11.271,1.819,10.45,7.439c-1.62,7.66-8.86,14.9-16.9,15.24
	c-3.34,0.37-5.939-2.31-6.97-5.23c-0.58-3.319,1.18-7.109,3.14-9.72C323.75,380.77,327.34,377.74,331.41,376.38z"/>
<path fill="#082D17" d="M608.98,396.119c3.53-0.04,6.69,3.15,10.12,3.721c3.439,0.66,6.52,0.449,9.5,2.59
	c3.26,2.22,3.76,6.32,6.18,8.77c3.32,1.59,6.92,1.66,9.5,4.521c3.07,3.25,4.59,8.12,5.55,12.39c1.141,5,0.25,9.61-0.29,14.601
	c-0.649,5.079-0.68,10.159-1.75,15.18c-1.409,6.729-0.819,13.38-1.67,20.17c-0.92,7.58,0.62,14.6,1.15,22.11
	c0.22,8.529,2.97,16.22,4.27,24.6c0.931,6.13,2.28,11.98,2.511,18.2c0.199,5.63,0.569,11.2,1.14,16.8
	c-0.27,5.49-0.59,10.75,1.13,16.07c-0.62,10.21-1.26,20.949-3.58,30.93c-1.6,7.08-2.97,13.86-5.89,20.55
	c-0.98,2.37-1.73,4.811-2.49,7.25c-4.03,11.73-7.27,23.75-10.67,35.681c-2.3-0.131-4.61-0.171-6.92-0.16
	c0.76-4.431,1.91-8.771,3.22-13.061c3.521-12.18,7.29-24.25,10.5-36.51c2.15-8.25,4.771-16.83,5.82-25.26
	c0.84-6.771,1.72-13.431,1.62-20.26c-0.101-9.48,0.27-18.881-0.62-28.341c-0.67-14.279-4.03-27.89-7.25-41.75
	c-4.13-19.31-1.75-39.56,0.95-58.909c0.95-6.971,1.87-15.15-1.38-21.671c-1.771-3.09-3.471-4.13-7.03-4.25
	c-1.96,9.45-3.51,18.96-4.99,28.49c-1.84,10.75-3.31,21.53-3.649,32.44c-0.271,3.12-0.08,6.729-1.29,9.649
	c-0.721,2.061-4.5,1.74-5.301-0.109c-0.93-2.271-0.71-5.13-0.68-7.54c0.81-18.95,4.13-38.12,7.51-56.78
	c0.83-4.77,2.84-11.22,0.351-15.72c-1.051-2.45-4.9-2.33-6.261-0.26c-1.439,2.409-2.149,5.3-3.14,7.909
	c-2.95,8.061-6.08,16.21-8.51,24.45c-2.3,8.141-3.79,16.54-5.04,24.91c-0.61,3.97-0.66,8.28-1.91,12.09
	c-0.74,1.95-2.3,2.67-4.29,2.17c-2.08-1.109-1.76-3.74-1.82-5.74c0.23-5.729,1.36-11.47,2.28-17.13
	c1.83-10.54,4.25-20.93,8.061-30.949c2.01-6.21,4.939-12.181,6.529-18.5c0.28-1.69,0.73-3.08-0.7-4.41c-5.229-1.23-11,2.6-14.5,6.2
	c-5.72,5.859-8.729,13.89-11.59,21.399c-4.279,11.21-8.5,22.21-10.96,34c-0.899,3.64-1.29,7.73-2.96,11.09
	c-1.229,2.37-5.63,2.03-5.91-0.87c-0.29-2.63,0.42-5.449,0.96-8.01c2.12-9,4.301-17.83,7.561-26.49c2.02-5.3,4.08-10.58,6.11-15.88
	c1.84-4.91,4.51-9.12,5.6-14.31c-4.83,0.1-7.83,1.21-11.35,4.52c-5.591,5.061-8.811,11.271-12.051,17.96
	c-3.96,8.181-7.949,16.28-11.229,24.771c-6.79,17.08-12.82,35.109-14.181,53.55c-0.27,7.67-0.17,15.39-0.1,23.06
	c0.68,13.261,2.71,26.79,4.84,39.881c1.65,9.93,2.99,20.029,3.19,30.09c0.12,5.33-1.12,10.38-2.74,15.41
	c-2.9,9.029-5.68,18-9.49,26.699c-2.05-0.83-4.069-1.58-6.08-2.47c3.061-10.59,7.431-20.82,10.25-31.49
	c1.011-3.75,0.71-7.449-0.08-11.199c-0.949-4.73-0.92-9.5-1.569-14.261c-0.61-4.939-1.8-9.77-2.36-14.71
	c-1.51-13.06-4.31-25.84-4-38.989c0.13-8.65-0.21-17.32,0.18-25.961c1.051-11.68,3.74-23.26,7.46-34.369
	c3.851-12.21,8.591-24.17,14.33-35.61c2.54-5.17,4.65-10.59,7.46-15.6c2.58-1.521,4.23-3.65,5.91-6.061
	c3.49-4.34,7.811-8.229,12.8-10.77c2.94-0.95,5.98-1.7,9.03-2.181c1.69-0.02,3.66,0.53,5.28,0.011c2.229-1.29,4.15-3.12,6.31-4.551
	C599.65,397.26,604.4,396.01,608.98,396.119z"/>
<path fill="#FFFFFF" d="M609.75,405.05c1.431,1.33,0.98,2.72,0.7,4.41c-1.59,6.319-4.52,12.29-6.529,18.5
	c-3.811,10.02-6.23,20.409-8.061,30.949c-0.92,5.66-2.05,11.4-2.28,17.13c0.061,2-0.26,4.631,1.82,5.74
	c1.99,0.5,3.55-0.22,4.29-2.17c1.25-3.81,1.3-8.12,1.91-12.09c1.25-8.37,2.74-16.77,5.04-24.91c2.43-8.24,5.56-16.39,8.51-24.45
	c0.99-2.609,1.7-5.5,3.14-7.909c1.36-2.07,5.21-2.19,6.261,0.26c2.489,4.5,0.479,10.95-0.351,15.72
	c-3.38,18.66-6.7,37.83-7.51,56.78c-0.03,2.41-0.25,5.27,0.68,7.54c0.801,1.85,4.58,2.17,5.301,0.109
	c1.21-2.92,1.02-6.529,1.29-9.649c0.34-10.91,1.81-21.69,3.649-32.44c1.48-9.53,3.03-19.04,4.99-28.49
	c3.56,0.12,5.26,1.16,7.03,4.25c3.25,6.521,2.33,14.7,1.38,21.671c-2.7,19.35-5.08,39.6-0.95,58.909
	c3.22,13.86,6.58,27.471,7.25,41.75c0.89,9.46,0.52,18.86,0.62,28.341c0.1,6.829-0.78,13.489-1.62,20.26
	c-1.05,8.43-3.67,17.01-5.82,25.26c-3.21,12.26-6.979,24.33-10.5,36.51c-1.31,4.29-2.46,8.63-3.22,13.061
	c-11.57-0.13-23.21-1.13-34.57-3.41c-21.14-3.73-41.72-9.58-61.25-18.561c3.811-8.699,6.59-17.67,9.49-26.699
	c1.62-5.03,2.86-10.08,2.74-15.41c-0.2-10.061-1.54-20.16-3.19-30.09c-2.13-13.091-4.16-26.62-4.84-39.881
	c-0.07-7.67-0.17-15.39,0.1-23.06c1.36-18.44,7.391-36.47,14.181-53.55c3.28-8.49,7.27-16.59,11.229-24.771
	c3.24-6.689,6.46-12.899,12.051-17.96c3.52-3.31,6.52-4.42,11.35-4.52c-1.09,5.189-3.76,9.399-5.6,14.31
	c-2.03,5.3-4.091,10.58-6.11,15.88c-3.26,8.66-5.44,17.49-7.561,26.49c-0.54,2.561-1.25,5.38-0.96,8.01
	c0.28,2.9,4.681,3.24,5.91,0.87c1.67-3.359,2.061-7.45,2.96-11.09c2.46-11.79,6.681-22.79,10.96-34
	c2.86-7.51,5.87-15.54,11.59-21.399C598.75,407.65,604.52,403.82,609.75,405.05z"/>
<path fill="#BF8936" d="M187.21,489.4l0.32,0.46L187.21,489.4z"/>
<path fill="#794B21" d="M647.27,500.17c1.45,4.59,4.4,7.689,6.86,11.71c4.739,7.52,9.479,15.02,14.649,22.25
	c5.29,8.399,10.681,16.72,15.96,25.14c7.74,11.02,14.59,22.62,22.23,33.73c6.81,11.46,15,21.89,21.029,33.84v4.66
	c-1.5,4.069-2.81,8.369-6.39,11.109c-3.14,2.311-7.41,4.21-11.37,3.99c-3.93-0.69-8.64-2.34-11.13-5.64
	c-2.76-3.681-4.76-7.881-7.37-11.681c-7.05-10.62-14.2-21.17-21.069-31.91c-4.71-7.239-9.12-14.63-14.351-21.529
	c-1.72-5.32-1.399-10.58-1.13-16.07c2.07,2.96,4.26,5.82,6.21,8.86c14.01,21.609,28.21,43.18,42.19,64.79
	c2.06,2.979,4.27,5.659,8.279,5.35c3.681-0.34,7.95-5.08,7.94-8.77c-0.311-3.99-3.49-7.931-5.57-11.23
	c-18.64-28.7-37.359-57.34-55.979-86.05c-1.61-2.5-3.17-5.16-5.05-7.46c-0.551-0.17-1.11-0.34-1.671-0.49
	C650.24,516.39,647.49,508.699,647.27,500.17z"/>
<path fill="#BF8936" d="M653.211,525.26c1.88,2.3,3.439,4.96,5.05,7.46c18.62,28.71,37.34,57.35,55.979,86.05
	c2.08,3.3,5.26,7.24,5.57,11.23c0.01,3.689-4.26,8.43-7.94,8.77c-4.01,0.31-6.22-2.37-8.279-5.35
	c-13.98-21.61-28.181-43.181-42.19-64.79c-1.95-3.04-4.14-5.9-6.21-8.86c-0.57-5.6-0.94-11.17-1.14-16.8
	c-0.23-6.22-1.58-12.07-2.511-18.2C652.1,524.92,652.66,525.09,653.211,525.26z"/>
<path fill="#7DA542" d="M206.9,532.14c2.01,2.39,3.72,4.93,5.45,7.52c5.89,8.851,12.109,17.49,17.81,26.471
	c-5.58,4.21-12.11,6.97-18.64,9.39c-12.24,4.21-25.33,6.24-38.19,7.26c-6.43-8.99-12.14-18.529-18.16-27.8
	c6.021-1.97,12.12-3.44,18.021-5.78c6.77-2.649,13.45-5.72,19.899-9.08C197.83,537.68,202.17,534.57,206.9,532.14z"/>
<path fill="#C98C02" d="M535.04,602.96c0.79,3.75,1.091,7.449,0.08,11.199c-2.819,10.67-7.189,20.9-10.25,31.49
	c-5.359-2.899-10.37-6.58-15.08-10.42c-3.239-2.84-7.18-6.56-7.13-11.21c0.03-3.82,2.9-5.79,5.891-7.47
	c7.71-4.221,17.93-4.91,26.55-5.87c0.07-1.99,0.14-3.97,0.12-5.95L535.04,602.96z"/>
<path fill="#FBAC02" d="M535.22,604.73c0.02,1.98-0.05,3.96-0.12,5.95c-8.62,0.96-18.84,1.649-26.55,5.87
	c-2.99,1.68-5.86,3.649-5.891,7.47c-0.05,4.65,3.891,8.37,7.13,11.21c4.71,3.84,9.721,7.521,15.08,10.42
	c2.011,0.89,4.03,1.64,6.08,2.47c19.53,8.98,40.11,14.83,61.25,18.561c11.36,2.28,23,3.28,34.57,3.41
	c2.31-0.011,4.62,0.029,6.92,0.16c7.09,0.75,13.65-0.641,20.57-2.04c4.51-1.07,9.72-2.591,13.29-5.681
	c2.09-1.859,2.89-4.47,2.16-7.18c-0.971-3.61-4.141-6.76-6.83-9.21c-5.521-4.79-11.7-8.9-18.521-11.57
	c0.76-2.439,1.51-4.88,2.49-7.25c9.49,5.26,21.22,11.25,27.52,20.34c3.601,4.641,2.69,11.03,1.86,16.42
	c-5.34,4.181-10.49,8.15-17.17,9.95c-11.34,3.84-22.3,3.07-34.061,3.101c-6.67-0.011-13.31-0.21-19.909-1.25
	c-23.561-2.931-47.29-8.53-69.21-17.75c-10.32-4.41-20.141-8.94-28.87-16.13c-3.25-2.69-6.42-5.75-8.73-9.29
	c-2.08-3.2-2.54-7.36-3.04-11.07c1.101-2.49,2.17-5.311,4.17-7.23c4.94-4.68,11.08-7.01,17.66-8.279
	C523.24,604.61,528.881,604.19,535.22,604.73z"/>
<path fill="#082D17" d="M495.24,621.64c0.5,3.71,0.96,7.87,3.04,11.07c2.311,3.54,5.48,6.6,8.73,9.29
	c8.729,7.189,18.55,11.72,28.87,16.13c21.92,9.22,45.649,14.819,69.21,17.75c6.6,1.04,13.239,1.239,19.909,1.25
	c11.761-0.03,22.721,0.739,34.061-3.101c6.68-1.8,11.83-5.77,17.17-9.95c-1.87,9.351-5.6,18.221-8.18,27.421
	c-3.67,9.479-6.82,19.14-10.641,28.56c-2.229,6.16-3.79,12.37-7.1,18.1c-3.86,9.591-7.78,19.13-11.8,28.66
	c-4.61,9.17-8.851,18.61-12.561,28.181H392.99c4.26-5.811,8.521-11.49,12.35-17.591c7.7-10.22,13.641-21.529,21.19-31.85
	c3.79-6.23,7.59-12.2,12.01-18c6.79-11.25,13.82-22.32,20.32-33.74c2.36-4.56,4.83-8.979,7.46-13.39
	c6.88-13.2,14.04-26.12,20.311-39.67C489.76,634.49,491.97,627.85,495.24,621.64z"/>
<path fill="#C98C02" d="M644.36,634.57c6.82,2.67,13,6.78,18.521,11.57c2.689,2.45,5.859,5.6,6.83,9.21
	c0.729,2.71-0.07,5.32-2.16,7.18c-3.57,3.09-8.78,4.61-13.29,5.681c-6.92,1.399-13.48,2.79-20.57,2.04
	C637.091,658.32,640.33,646.3,644.36,634.57z"/>
</svg>
