<?xml version="1.0" encoding="utf-8"?>
<!-- Generator: Adobe Illustrator 16.0.3, SVG Export Plug-In . SVG Version: 6.00 Build 0)  -->
<!DOCTYPE svg PUBLIC "-//W3C//DTD SVG 1.1//EN" "http://www.w3.org/Graphics/SVG/1.1/DTD/svg11.dtd">
<svg version="1.1" id="圖層_1" xmlns="http://www.w3.org/2000/svg" xmlns:xlink="http://www.w3.org/1999/xlink" x="0px" y="0px"
	 width="435px" height="157px" viewBox="0 0 435 157" enable-background="new 0 0 435 157" xml:space="preserve">
<path fill="#683302" d="M398.98,0.79c4,0.42,8.96,3.16,9.84,7.43c0.45,2.5,0.5,5.37-1.14,7.47c-3.21,4.47-7.7,6.12-12.261,8.77
	c-6.29,3.78-12.96,6.84-19.149,10.81c-22.32,12.7-44.73,25.31-67.11,37.9c-3.59,2.05-6.93,4.63-11.229,4.75
	c-3.57,0.03-8.261-0.1-10.69-3.17c-3.9-4.3-2.69-11.36,1.51-14.99c4.21-3.53,9.431-6.07,14.15-8.88c3.79-2.28,7.7-4.32,11.6-6.39
	c10.391-6.37,21.181-12.02,31.511-18.479c11.979-6.79,24.029-13.54,36.409-19.57C387.45,4.19,393.39,0.72,398.98,0.79z"/>
<path fill="#683302" d="M35.9,2.09c7.41-0.24,12,3.83,18.63,6.42c9.26,4.58,18.37,9.5,27.34,14.63c7.51,3.63,14.28,8.41,21.54,12.47
	c9.36,5.75,19.14,10.74,28.561,16.4c4.89,2.95,10.52,5.38,14.829,9.16c4.021,3.4,3.95,9.8,1.49,14.04
	c-4.2,4.59-12.22,5.05-17.359,1.84c-3.99-2.39-7.96-4.82-12-7.13c-4.221-2.03-8.301-4.1-12.23-6.67
	c-17.62-9.87-35.43-19.93-52.91-30.02c-6.88-3.27-12.859-7.95-19.66-11.33c-2.439-1.24-4.72-2.36-6.35-4.67
	C23.2,11.54,28.69,1.52,35.9,2.09z"/>
<path fill="#BF9A48" d="M398.03,8.14c1.89-0.17,3.04,1.38,4.03,2.74c-2.13,2.09-4.34,3.82-6.96,5.25
	C365.29,32.96,335.46,49.8,305.67,66.66c-3.02,1.6-6.31,3.61-9.71,4.18c-1.85,0.19-5.189-2.13-3.27-4.13
	c1.8-2.42,4.85-4.06,7.38-5.62c16.75-9.52,33.58-18.94,50.04-28.96c13.05-7.47,26.36-14.58,39.89-21.14
	C392.51,9.82,395.26,8.49,398.03,8.14z"/>
<path fill="#BF9A48" d="M36.94,9.15c4.43,0.72,8.75,3.21,12.76,5.14c14.5,7.24,28.84,14.88,42.66,23.34
	c14.08,8.34,28.35,16.35,42.57,24.45c2.739,1.74,6.75,3.79,7.989,6.94c-0.34,1.87-2.79,3.43-4.64,2.71
	c-3.82-1.03-7.43-3.25-10.89-5.14C100.2,51.13,72.86,35.79,45.63,20.4c-4.399-2.49-9.229-4.76-12.659-8.49
	C33.94,10.48,34.95,8.88,36.94,9.15z"/>
<path fill="#683302" d="M423,66.02c5.49,0.44,9.211,2.59,12,7.37v5.17c-1.739,2.26-3.479,4.93-5.85,6.581
	c-2.91,1.549-6.78,1.77-10.01,2.069c-5.091,0.36-10.03,1.601-15.141,1.81c-4.76,0.181-9.3,1.381-13.989,2.03
	c-5.11,0.82-10.141,0.14-15.16,1.681c-7.551,1.049-15.07,2.25-22.65,2.939c-5.689,1.07-11.25,1.689-17,2.16
	c-7.06,1.37-14.2,1.67-21.26,3.09c-5.34,0.52-10.62,1.16-15.93,1.91c-3.23-0.53-6.57-1.91-9.48-3.391
	c-6.21-3.18-5.95-13.52,0.57-16.319c5.52-1.61,11.52-2.25,17.21-3c3.79-0.771,7.56-1.21,11.41-1.52c5.35-0.67,10.609-1.72,16-2.07
	c6.42-0.46,12.479-2.15,18.84-2c3.649,0.17,6.76-1.58,10.42-1.68c5.38-0.2,10.569-1.33,15.87-2.11
	C393.05,69.85,408.12,65.75,423,66.02z"/>
<path fill="#683302" d="M30.69,68.37c5.62,0.59,10.939,2.27,16.62,2.35c14.18,1.74,28.5,3.12,42.56,5.73
	c2.37,0.3,4.771,0.14,7.17,0.35c3.84,0.25,7.47,1.46,11.311,1.77c6.479,0.55,13.06,1.321,19.38,2.911
	c5.26,1.399,10.68,0.109,15.99,1.75c3.05,0.689,5.01,3,6.59,5.539c2.18,3.5,0.609,8.631-2.71,10.82
	c-3.261,2.221-6.811,4.11-10.841,4.189c-4.229,0.061-8.6-1.189-12.8-1.76c-5.33-0.85-10.64-0.83-15.91-2.069
	c-4.699-1.16-9.51-0.761-14.229-1.8c-3.84-0.881-7.72-1.03-11.62-1.381c-15.67-1.779-31.27-4.289-46.93-6.1
	C26.72,88.73,18.02,88.84,9.4,87.48C5.02,86.73,2.21,82.96,0,79.43v-0.86c0.01-0.09,0.01-0.18,0-0.26v-4.02
	c2-2.99,4.221-5.48,7.83-6.46C14.86,65.8,23.54,67.51,30.69,68.37z"/>
<path fill="#BF9A48" d="M423.61,73.41c2.16,0.52,3.29,1.65,4.49,3.42c-3.93,3.24-8.79,2.91-13.62,3.68
	c-33.36,4.26-66.71,8.68-100.08,12.92c-5.95,0.65-12.37,2.17-18.33,1.48c-2.271-0.24-3.45-1.689-5.08-3.061
	c0.95-1.34,1.4-2.34,3.22-2.539c5.23-0.83,10.45-1.74,15.681-2.531c12.739-1.369,25.35-3.59,38.12-4.75
	c20.34-2.68,40.72-5.079,61.029-7.989C413.64,73.37,419.05,72.28,423.61,73.41z"/>
<path fill="#BF9A48" d="M12.17,74.17c3.58-0.57,7.5-0.02,11.07,0.47c16.22,2.31,32.46,4.44,48.72,6.4
	c12.08,1.92,24.28,2.76,36.37,4.601C117.35,87,126.43,87.76,135.4,89.45c3.32,0.81,6.83-0.08,8.62,3.38
	c-1.641,1.37-2.84,2.811-5.12,3.05c-5.34,0.71-11.28-0.58-16.62-1.22c-36.46-4.68-72.56-9.43-108.92-14.051
	c-2.04-0.5-5.73-0.67-5.561-3.549C8.3,75.35,10.57,74.45,12.17,74.17z"/>
<path fill="#FFFFFF" d="M0,78.31c0.01,0.08,0.01,0.17,0,0.26V78.31z"/>
<path fill="#683302" d="M301.76,108.26c5.529,1.65,11.26,2.391,16.789,4.08c10.33,2.46,20.83,4.54,30.921,7.881
	c6.84,1.489,13.399,3.859,20.31,5.079c12.35,3.62,24.59,6.13,36.82,10.15c4,1.2,7.3,4.159,8.92,8c0.649,2.899,0.25,6.86-2.17,8.88
	c-2.851,2.439-6.221,4.279-10.09,3.47c-6.44-1.28-12.69-3.489-19.08-4.979c-5.391-1.221-10.561-3.09-16.011-4.021
	c-4.83-0.909-9.33-2.7-14.08-3.89c-7.739-2.1-15.54-3.02-23.06-6c-4.2-1.77-8.6-1.76-12.95-2.93c-5-1.28-9.979-2.58-14.93-4.061
	c-3.76-1.13-7.7-1.59-11.43-2.79c-5.41-2.46-9.261-7.81-8.04-13.93c0.68-3.05,2.979-4.38,5.68-5.4
	C293.61,106.189,297.56,107.07,301.76,108.26z"/>
<path fill="#683302" d="M142.96,108.02c4.351-0.109,8.5,3.41,8.67,7.84c0.66,4.121-2.47,7.861-5.279,10.471
	c-2.931,2.82-6.44,2.55-10.15,3.42c-7.33,1.689-14.479,4.189-21.85,5.75c-5.46,1.141-10.69,3.061-16.141,4.2
	c-6.62,1.271-12.92,3.59-19.479,5.06c-7.24,1.461-14.19,3.811-21.351,5.59C49.4,152.58,41,153.859,33.33,157h-5.77
	c-3.54-2.25-7.78-3.38-8.54-8.109c-0.86-5.41,2.689-9.41,7.3-11.531c8.52-3.529,18.24-5.08,27-7.93
	c4.439-1.439,8.89-2.65,13.47-3.58c12.03-2.6,23.76-6.25,35.63-9.459c7.94-1.451,15.601-3.92,23.521-5.4
	C131.95,109.87,136.89,107.88,142.96,108.02z"/>
<path fill="#BF9A48" d="M292.28,114.1c3.21-0.09,6.51,1.34,9.66,1.94c14.39,2.739,28.67,6.22,42.75,10.271
	c19.55,4.85,38.939,10.289,58.35,15.66c2.25,0.899,5.76,1.779,5.19,4.939c-1.47,2.57-4.7,1.32-6.97,0.92
	c-30.9-7.95-62.08-16.09-93.03-24.051c-5.01-1.359-10.75-2.17-15.3-4.699C290.93,118.05,290.15,115.45,292.28,114.1z"/>
<path fill="#BF9A48" d="M142.69,115.16c2,1.01,1.399,3.279-0.01,4.5c-2.261,1.619-5.33,2.3-7.971,3.07
	c-31.26,8.049-62.51,16.16-93.76,24.22c-3.63,0.89-7.31,2.19-11.04,2.53c-1.33,0.18-2.65-1.01-3.79-1.61
	c0.71-1.681,1.16-3,2.99-3.74c5.85-2.59,12.45-3.55,18.56-5.479c14.641-4.351,29.46-7.92,44.23-11.771
	c13.54-3.92,27.32-7.18,41.16-9.83C136.19,116.471,139.5,115.029,142.69,115.16z"/>
</svg>
