<?xml version="1.0" encoding="utf-8"?>
<!-- Generator: Adobe Illustrator 16.0.3, SVG Export Plug-In . SVG Version: 6.00 Build 0)  -->
<!DOCTYPE svg PUBLIC "-//W3C//DTD SVG 1.1//EN" "http://www.w3.org/Graphics/SVG/1.1/DTD/svg11.dtd">
<svg version="1.1" id="圖層_1" xmlns="http://www.w3.org/2000/svg" xmlns:xlink="http://www.w3.org/1999/xlink" x="0px" y="0px"
	 width="430px" height="655px" viewBox="0 0 430 655" enable-background="new 0 0 430 655" xml:space="preserve">
<path fill="#FFFFFF" d="M0,0h11.24C9.08,0.76,6.72,1.57,4.84,2.89C2.65,4.47,1.26,6.99,0,9.32V0z"/>
<path fill="#454018" d="M11.24,0h0.77C15.43,1.49,18.55,3.08,20.72,6.24c2.899,4.29,4.34,9.28,7.619,13.421
	c5.44,7,12.431,10.68,19.83,15.17C59,41.17,69.2,49.32,75.9,60.1c3.79,6.13,7.71,12.03,12.84,17.16
	c6.48,6.33,13.93,11.479,22.36,14.87c6.76-6.05,13.729-11.05,21.79-15.23c0.029-6.34,0.01-12.18,3.1-17.92
	c5.41-10.54,18.08-15.819,29.43-12.359c13.96,3.989,22.13,19.52,18.141,33.39c2.81,2.4,5.569,4.62,8.01,7.42
	c5.8,6.59,9.61,15.06,11.4,23.61c1.199,5.67,1,11.1,1.069,16.859c11.46,2.75,21.561,8.33,31.36,14.7
	c12.75,8.021,24.99,15.49,35.38,26.62c9.53,10.16,18.08,21.45,26.33,32.67c8.99,12.23,16.71,25.33,22.7,39.28
	c3.649,8.939,7.279,17.729,10.01,27.01c4.3,14.5,8.41,28.68,10.229,43.75c0.961,6.64,1,13.37,2,19.99c0.2,2.479,2.23,3.63,4.021,5
	c4.8,3.229,9.81,6.13,14.52,9.5c16.83,12.26,31.62,27.359,43.641,44.35c12.09,16.94,19.44,37.34,23.11,57.71
	c0.87,5.82,1.399,11.65,2.659,17.41v18.47c-1.5,6.88-2.06,13.74-4.079,20.5c-2.771,10.13-6.971,19.75-12.16,28.86
	c-3.601,6.979-8.311,13.25-11.82,20.27c-1.86,3.521-4.12,6.79-5.76,10.44c-0.79,0.359-1.591,0.72-2.381,1.07
	c-2.02,6.21-6.26,10.029-9.56,15.779c-7.21,10.891-12.65,23.45-14.55,36.431c-0.88,5.449-2.13,10.8-2.73,16.3
	c-0.529,4-1.39,8.22-3.199,11.84c-2.48,3.83-6.74,6.79-10.57,9.15h-6.42c-4.5-2.54-8.55-5.091-10.61-10.07
	c-2.75-7.17-4.62-15.141-4.03-22.86c0.721-8.359,1.931-16.64,3.061-24.95c0.35-2.359,1.16-4.56,2.29-6.649
	c3.25-5.891,5.42-12.141,9.29-17.7c5.14-7.5,10.33-14.97,15.56-22.4c5.53-8.92,12.22-16.02,16.11-26.02
	c2.57-5.54,2.229-11.59,4.689-17.15c1.971-4.489,1.54-8.92,1.9-13.64c1.3-8.4-0.75-17.66-2.69-25.85
	c-3.13-13.15-8.819-25.53-16.239-36.801c-2.21-3.46-5.04-6.25-8.221-8.819c-4.729-3.761-7-8.511-13.21-9.98
	c-2.319-3.29-4.55-6.5-7.67-9.109c-9.779-8.301-19.42-16.391-27.56-26.391c-3.42-4.34-6.82-8.49-9.2-13.51
	c-2.26,0.01-4.52,0.05-6.78,0.11c3.12,3.979,6.551,7.699,9.601,11.729c2.649,3.44,5.399,6.63,9.109,8.98
	c1.91,4.89,4.341,9.479,6.82,14.1c2.89,5.42,7.1,9.77,9.521,15.49c2.479,5.859,4.489,11.859,7.52,17.479
	c2.58,4.74,3.77,9.851,4.9,15.08c0.899,4.44,2.67,8.351,2.989,12.92c0.4,6.55,1.62,12.521,0.181,19.061
	c-1.011,4.91-2.74,11.01-6.61,14.43c-3.51,3.04-7.4,2.41-11.7,2.92c-0.83,1-1.649,2.05-2.569,2.96c-3.721,0.96-7.71,0.48-11.46,1.5
	c-3.57,0.84-8.7,2.17-12.12,0.51c-4.681-3.68-8.53-9.17-8.62-15.33c-0.16-5.01-0.15-10.09-0.03-15.1c0.05-5.17,2.41-9.88,4.5-14.49
	c2.05-4.56,5.3-8.779,6.89-13.489c-2.109-5.74-7.13-10.66-11.409-14.9c-4.74-4.17-8.25-9.15-13.341-12.66
	c-3.55-2.5-7.29-4.7-10.79-7.28c-9.29-7.09-19.149-13.109-28.06-20.89c-5.84-5.16-10.84-11.15-16.43-16.59
	c-8.04-8.37-13.521-18.8-13.431-30.62c0.12-6.7-0.739-12.82,2-19.07c2.41-5.64,5.71-11.5,10.41-15.54
	c5.93-4.449,12.54-4.659,19.04-7.779c-4.66-7.18-10.96-12.87-15.26-20.311c-2.5,4.45-4.771,8.811-7.96,12.841
	c-3.45,4.199-8.33,6.869-13.38,8.68c-3.67,1.439-7.86,1.199-11.771,1.27c-4.49-0.07-9.54,0.26-13.79-1.229
	c-11.239-3.54-22.1-9.99-32.479-15.69c-8.73-5.85-17.96-11.399-27.86-15.09c-5.56-2.06-10.97-4.59-16.6-6.45
	c-4.59-1.569-9.34-1.779-14.04-2.97c-4.48-1.21-7.57,1.31-12.221,1.39c-5.729,0.15-11.579-2.55-17.109-3.949
	c-6.66-2.16-14.641-4.29-19.66-9.36c-2.17-2.05-4.77-4.04-6.37-6.57c-1.27-2.39-1.91-5.16-2.3-7.819
	c-0.47-3.12,0.95-6.141,0.979-9.181c-0.27-3.399-2.09-6.62-2.239-9.989c0.22-2.851,1.13-5.771,2.72-8.171
	c1.5-2.18,4.21-2.859,6.54-3.779c1.979-3.23,3.33-7.03,6.99-8.7c7.16-1.88,14.08-0.22,20.319,3.52
	c6.391,3.19,9.761,8.42,14.391,13.65c3.18,3.66,5.109,8.22,8.279,11.83c5.66,1.01,11.71,0.229,17.45,0.46
	c7.78,0.24,16.32-0.91,23.75,1.14c4.41,1.09,8.95,0.58,13.26,1.801c4.381,1.239,8.62,2.76,13.15,3.38
	c-2.15-6.58-5.27-12.66-7.2-19.29c-1.26-4.061-0.989-8.771-1.06-13.011c-5.33,0-10.66-0.22-15.98-0.1
	c-1.72,0.17-3.46-0.08-4.77,1.21c-2.99,2.61-4.95,5.61-8.7,7.37c-3.42,1.87-7.64,1.5-11.45,1.61c-3.7-0.091-7.77,0.239-11.35-0.79
	c-9.72-3.95-17.36-12.891-19.21-23.271c0.12-6.38,0.56-13.79,4.54-19.07c2.7-2.92,5.939-5.369,8.95-7.97
	c-0.021-7.14,0.93-14.28,1.819-21.35c0.86-6.53,3.67-12.34,5.24-18.63c-3.66-2.48-7.98-3.84-11.64-6.37
	c-7.021-4.79-13.181-10.94-18.29-17.73c-5.29-7.04-9.54-16.069-15.9-22.1c-8.99-8.19-21.59-12.68-30.87-20.12
	C8.85,39.3,2.69,27.35,0,14.35V9.32c1.26-2.33,2.65-4.85,4.84-6.43C6.72,1.57,9.08,0.76,11.24,0z"/>
<path fill="#F4A703" d="M10.99,7.32c6.08,5.221,7.06,12.62,12.26,18.42c5.86,6.721,13,10.961,20.561,15.45
	c7.27,4.311,14.02,8.98,19.779,15.23c5.61,6.05,8.74,13.52,14.061,19.93C85.36,86.12,95.3,93.01,106.2,98.78
	c-1.85,2.681-3.67,5.37-5.47,8.07C89.31,103.5,80.55,95.89,73.29,86.72c-4.79-6.08-8.17-13.04-12.95-19.08
	c-4.6-5.92-10.489-10.3-16.899-14.08C34.81,48.3,25.88,44.66,19.1,36.92c-5.5-6.4-9.931-14.65-10.96-23.09
	C7.65,10.92,9.27,9.36,10.99,7.32z"/>
<path fill="#C5BC48" d="M144.99,59.32c2.91,2.091,5.56,5.29,8.79,6.811c2.79,1.21,6.17,1.229,9.14,0.79
	c4.09-0.65,7.32-3.38,10.561-5.75c2.81,5.2,3.689,9.13,3.649,15.08c-5.439-1.351-10.449-3-16.08-3.44
	c-6.869-0.62-13.6,0.51-20.38,1.4C140.76,68.67,141.12,63.63,144.99,59.32z"/>
<path fill="#C5BC48" d="M167.08,80.93c5.25,1.29,9.71,3.99,14.11,7.03c-3.54,3.92-6.94,7.45-8.51,12.66
	c-1.601,4.449-2.311,10.859-5.851,14.21c-3.3,2.939-9.33,2.75-13.479,3.71c-9.83,1.6-17.32,10.819-18.04,20.56
	c-0.53,3.74-0.011,8.811-2.16,12.05c-3.96,5.351-12.03,7.561-16.311,12.69c-3.08,3.68-3.58,8.82-4.489,13.36
	c-9.061-7.881-13.971-19.261-14.521-31.16c-1.439-24.69,13.79-49.4,35.57-60.63C143.53,80.1,155.93,78.12,167.08,80.93z"/>
<path fill="#BF8602" d="M185.66,92.09c2.08,2.75,3.86,5.67,5.64,8.61c-2.829,2.279-6.06,4.42-7.699,7.779
	c-2.37,4.78-3.24,10.11-6.78,14.34c-5.69,7.011-17.37,4.851-23.771,12.23c-6.09,6.74-2.46,17.47-7.81,24.16
	c-4.28,5.52-12.25,6.64-16.81,11.22c-3.24,3.29-4.57,8.75-6.12,12.99c-1.311-0.94-2.54-1.97-3.73-3.05
	c-1.18-3.21-0.72-7.181,0.48-10.33c1.58-4.011,5.31-6.04,8.75-8.24c4.13-2.55,8.81-5.59,10.72-10.26
	c1.91-5.051,0.96-11.21,2.63-16.4c2-5.9,6.98-10.62,13.2-11.71c5.31-1.27,11.95-0.89,16.01-5.05c5.62-5.38,5.28-14.41,9.18-20.82
	C181.06,95.11,183.28,93.59,185.66,92.09z"/>
<path fill="#F4A703" d="M193.49,105.67c0.91,3.49,2.36,7.38,2.14,11.02c-2.37,3.24-5.8,5.42-7.88,9
	c-2.09,3.19-3.74,7.851-6.93,10.04c-4.771,2.98-10.19,3.431-14,8.101c-5.73,6.84-3.84,16.34-9.25,22.729
	c-4.3,5.09-10.75,6.47-15.97,10.08c-2.801,1.95-4.11,4.87-5.86,7.68c-2.69,0.07-5.39,0.101-8.09,0.16c1-3.39,1.85-7.8,4.52-10.3
	c2.79-2.57,6.771-4.11,10.021-6.05c4.78-2.71,8.99-7.08,10.34-12.53c1.55-5.35,0.62-13.28,4.6-17.439
	c5.32-5.46,15.431-4.381,21.29-9.73c5.15-4.47,6.551-10.09,8.971-16.14C188.54,109.17,190.95,107.57,193.49,105.67z"/>
<path fill="#C5BC48" d="M195.88,123.57c0.33,6.95-1.34,13.351-3.51,19.87c-0.34,1.771-1.7,4.88-0.1,6.3
	c1.2,1.681,4.09,1.45,5.1-0.329c2.46-3.78,2.96-8.881,5.41-12.71c2.28-0.78,5.18,0.35,7.36,1.09c8.989,3.41,17.64,9.199,25.8,14.26
	c8.42,5.21,16.46,10.5,23.83,17.18C267.22,175.99,273.78,184.1,280,192c12.57,15.87,24.061,32.149,32.21,50.79
	c7.07,16.35,12.25,33.26,16.49,50.54c3.19,12.579,4.64,25.779,5.26,38.72c0.28,2.489,0.21,4.979,2.16,6.819
	c3.05,2.971,6.97,5.16,10.51,7.5c15.49,9.641,29.381,21.92,41.15,35.841c5.92,6.859,11.37,14.26,15.9,22.119
	c8.93,15.71,14.449,33.15,16.909,51.03c2.41,16.87,2.141,33.92-2.909,50.3c-3.631,11.67-9.471,22.801-15.78,33.23
	c-8.08,13.42-18.53,25.02-26.47,38.55c-7.66,12.22-13.24,25.39-15.24,39.75c-1.061,6.59-1.19,13.61-3.061,20.021
	c-0.96,3.06-3.01,6.84-6.3,7.79c-2.01,0.52-3.42-0.87-4.59-2.28c-3.02-3.98-4.03-8.771-4.24-13.67
	c-0.37-10.24,0.07-20.261,2.9-30.16c2.5-9.19,7.16-16.851,12.12-24.86c6.99-11.279,16.18-21.399,23.22-32.76
	c8.55-13.73,12.86-30.15,12.97-46.27c0.521-19.98-4.989-40.271-14.38-57.841c-5.609-10.6-12.979-20.069-21.56-28.43
	c-10.78-10.87-23.32-20.08-34.01-30.99c-7.961-8.56-15.141-18.26-20.021-28.92c-1.26-2.53-2.58-5.569-4.7-7.5
	c-1.84-0.37-3.75-0.02-4.39,1.99c-0.4,3.43,1.59,7.26,2.729,10.45c-4.979,0.52-10.619,1.859-15.569,0.83
	c-5.641-2.15-10.24-8.67-16.181-10.101c-3.069,0.05-4.119,3.44-2.31,5.62c2.99,3.58,7.59,5.91,11.17,8.9
	c18.42,15.39,33.14,34.59,44.15,55.859c3.35,6.48,5.659,13.391,9.18,19.801c4.06,7.46,5.74,15.39,7.24,23.67
	c1.229,7.439,1.85,15.239-0.811,22.46c-0.979,2.68-3.17,4.069-5.27,5.8c-0.48-5.3,0.08-10.89-1.061-16.08
	c-0.729-2.67-2.729-2.68-5.069-2.48c-1.87,2.261-1.36,6.211-1.5,8.971c-0.07,5.22,0.37,10.279-4.051,13.96
	c-0.979-0.37-2.42-0.8-2.939-1.8c-1.71-5.811,1.74-13.7-1.29-18.99c-2.26-0.271-4.31-0.3-5.28,2.16
	c-2.029,6.08-0.609,13.239-1.79,19.59c-2.08-0.601-2.92-1.65-3.92-3.5c-3.96-7.49-2.939-16.15,0.061-23.771
	c2.609-7.34,7.409-13.489,10.43-20.56c1.14-2.58-0.01-4.65-1.22-6.93c-7.771-12.95-18.4-23.591-30.561-32.46
	c-9.3-6.721-18.819-13.141-28.09-19.91c-8-5.86-15.24-12.771-21.87-20.141c-5.66-6.35-10.08-13.6-12.12-21.92
	c-2.2-8.26-0.83-17.54,3.761-24.76c3.039-4.67,7.569-7.36,12.63-9.4c9.97-4.14,21.17-4.649,31.529-1.67
	c1.91,0.25,5.391,1.811,6.801-0.01c1.56-1.61,1.01-3.88-0.65-5.17c-5.18-4.02-14.28-2.17-19.4-6.569
	c-6.149-5.101-11.199-11.841-15.56-18.49c-4.8-7.3-9.4-14.79-13.44-22.53c-2.63-4.979-3.649-10.729-6.51-15.53
	c-1.189-1.899-2.729-2.84-5.02-2.479c-1.98,1.13-1.311,2.79-1.15,4.68c1.06,5.22,3.62,10.03,4.76,15.26
	c1.75,7.311,1.431,14.91-2.34,21.551c-4.82,8.89-15.2,14.08-25.21,12.949c-6.47-0.75-12.939-3.319-18.72-6.239
	c-10.05-5.091-19.42-11.11-29.391-16.62c-16.34-9.09-33.13-16.391-51.729-19.29c-6.9-0.811-13.21,1.819-20.21,0.18
	c-9.021-2.03-18.15-5.76-25.4-11.57c-2.72-2.09-3.439-4.96-4.39-8.079c4.479,0.789,8.5,2.02,12.66,3.85
	c2.84,1.12,6.399,2.83,9.49,2.189c1.619-1.039,1.819-3.829,0.52-5.13c-5.32-4.92-14.29-4.92-19.47-9.649
	c-3.221-3.03-3.53-6.54-3.181-10.721c5.07,1.98,9.62,4.73,14,7.94c2.5,1.64,5.931,4.24,9.07,3.47c2.34-1.67,1.771-4.62-0.29-6.26
	c-4.51-3.91-9.97-6.77-14.87-10.18c0.92-1.431,1.87-2.88,3.01-4.141c3.921-0.689,8.37,1.45,11.54,3.61
	c7.07,4.71,11.851,13.34,16.881,20.11c1.5,1.88,3.13,4.729,5.399,5.66c3.141,0.39,6.49-0.28,9.66-0.471
	c6.42-0.58,12.65,0.021,19.04,0.5c16.41,0.971,34.25,3.17,49.44,9.771c4.779,1.84,5.869,7.45,9.6,10.489
	c1.81,1.431,5.22,0.58,5.05-2.06c-0.04-2.7-1.91-5.49-3.21-7.79c-8.09-13.09-14.86-26.29-17.45-41.63
	c-0.319-2.26-0.6-4.771-0.09-7.021c2.16-1.979,5.05-3.189,7.2-5.17c1.33-1.59,0.51-3.92-0.95-5.149
	c-3.56-0.101-7.36,1.59-10.75,2.609c-3.38,1.11-6.87,1.65-10.399,2.021c2.02-2.87,4.199-5.35,7.43-6.87
	c5.85-2.97,11.27-5.3,15-11.04c4.17-6.11,3.439-13.95,7.1-19.89c3.641-5.59,13.03-5.29,16.931-11.021
	C190,132.49,192.06,127.57,195.88,123.57z"/>
<path fill="#C5BC48" d="M93.63,163.53c3,5.07,5.261,10.131,9.24,14.591c4.561,5.239,10.11,8.27,15.811,12.029
	c-1.99,1.771-4.11,3.86-6.57,4.92c-2.34,0.99-4.99,1.471-7.46,2.011c-0.33-4.091-0.43-8.79-2.19-12.561
	c-1.51-3.21-3.81-6.189-6.72-8.25c-3.01-2.05-7.29-2.59-10.76-3.479C87.07,168.69,89.28,165.46,93.63,163.53z"/>
<path fill="#454018" d="M221.95,170.02c3.8,2.19,6.26,7,8.29,10.74c5.45,10.92,13,20.82,21.24,29.77
	c7.56,7.45,16.35,13.69,24.42,20.591c8.12,6.619,14.95,15.22,21.62,23.359c6.29,7.76,11.02,16.15,14.51,25.51
	c2.56,6.61,5.84,14.28,3.33,21.391c-1.68,4.979-9,4.699-12.07,1.319c-3.39-3.75-4.779-9.729-6.63-14.38
	c-5.3-14.529-14.35-26.89-25.37-37.609c-10.529-10.88-22.53-20.061-33.109-30.88c-10.471-10.13-19.12-21.891-24.521-35.48
	c-1.2-3.26-2.87-7.67-1.57-11.1C213.57,169.27,218.39,167.97,221.95,170.02z"/>
<path fill="#7F5A03" d="M217.24,174c1.34,0.109,2.53,0.189,3.52,1.21c3.03,2.979,4.881,7.439,6.921,11.13
	c3.88,7.57,8.939,14.13,14.22,20.75c8.28,10.729,20.75,18.99,31.09,27.92c7.29,5.93,12.86,13.04,18.82,20.21
	c2.89,3.53,5.62,7.09,8.069,10.94c4.311,6.739,7.351,14.51,9.99,22.04c1.45,4.06,1.67,8.189,1.351,12.459
	c-2.19-0.97-4.53-0.89-5.58-3.27c-2.53-4.729-3.95-10.04-6.12-14.95c-5.69-13.76-14.641-25.37-25.33-35.63
	c-10.49-10.91-22.53-20.07-33.07-30.91c-10.01-9.68-18.57-21.609-23.47-34.689C217.04,179.11,215.65,175.93,217.24,174z"/>
<path fill="#454018" d="M242.41,174.25c3.07-1.25,7.11-0.511,8.71,2.66c1.64,3.109,1.46,8.439-1.83,10.46
	c-3.479,1.859-7.58-0.07-9.26-3.431C238.15,180.63,239.03,176.19,242.41,174.25z"/>
<path fill="#A0A88E" d="M243.88,177.96c1.42,0.37,2.65,0.49,3.15,2.069c-0.2,1.37-0.49,2.721-0.84,4.07
	C245.14,182.14,244.23,180.17,243.88,177.96z"/>
<path fill="#FFFFFF" d="M127.65,184.48c2.7-0.06,5.399-0.09,8.09-0.16C133.11,186.63,130.64,185,127.65,184.48z"/>
<path fill="#454018" d="M189.55,202.46c3.061-1.34,7.49-0.021,9,3.05c1.181,2.92,0.671,7.1-1.899,9.15
	c-3.15,2.569-8.48,1.579-10.271-2.141C184.93,209.15,185.9,204.05,189.55,202.46z"/>
<path fill="#A0A88E" d="M193.65,206.49c0.05,1.561,0.109,3.131,0.17,4.7c-1.39-0.479-2.78-0.96-4.17-1.439
	C191,208.68,192.33,207.59,193.65,206.49z"/>
<path fill="#454018" d="M284.56,213.46c2.05-0.88,4.399-0.55,6.2,0.72c3.829,2.57,3.119,9.8-1.221,11.5
	c-3.83,1.44-8.22-1.08-9.029-5.06C279.92,217.55,281.77,214.67,284.56,213.46z"/>
<path fill="#A0A88E" d="M285.17,218.61c0.94-0.399,1.88-0.8,2.811-1.199c-0.141,1.72-0.32,3.439-0.53,5.149
	C286.57,221.31,285.79,220.01,285.17,218.61z"/>
<path fill="#454018" d="M154.46,261.53c7.061,3.881,14.101,8.37,21.48,11.54c4.149,1.761,8.49,3.25,13.06,3.011
	c4-0.17,7.82-1.57,11.771-1.811c1.43,1.03,1.859,3.65-0.15,4.32c-5.95,3.399-14.17,3.12-20.62,1.399
	c-12.18-3.529-23.729-12.27-35.16-17.77c-2.42-1.2-5.029-2.26-7.25-3.81c-1.59-0.87-1.3-2.9-1.71-4.46
	C143.17,254.46,148.26,258.2,154.46,261.53z"/>
<path fill="#454018" d="M198.78,262.87c0.16,1.369,0.3,2.729,0.43,4.1c-3.75,1.01-8.13,2.48-12.029,2.02
	c-1.78-0.189-2.98-2.529-4.101-3.739C188.28,263.89,193.38,262.77,198.78,262.87z"/>
<path fill="#454018" d="M262.44,267.43c3.56-0.67,7.09,1.32,8.66,4.53c2.35,4.29-1.67,10.3-6.23,10.84
	c-4.46,0.2-8.08-4.51-7.84-8.75C257.15,270.53,258.79,267.97,262.44,267.43z"/>
<path fill="#A0A88E" d="M266.97,274.97c-0.351,0.96-0.881,1.71-1.591,2.25l-1.18,0.99c-1.05-1.561-3.08-3.57-1.47-5.45
	C264.29,270.43,266.1,273.52,266.97,274.97z"/>
<path fill="#454018" d="M313.52,315.42c3.41-1.4,6.85,0.77,8.029,4.05c1.12,3.16,0.771,7.819-2.31,9.81
	c-3.65,1.95-8.55,0.53-10.25-3.359C306.88,322.07,309.81,316.98,313.52,315.42z"/>
<path fill="#A0A88E" d="M315.27,319.579c0.85,1.721,1.72,3.431,2.5,5.171c-1.5-0.07-3.01-0.03-4.54,0.109
	C313.89,323.1,314.55,321.329,315.27,319.579z"/>
<path fill="#454018" d="M231.08,328.039c5.05,0.061,5.75,3.69,7.53,7.511c-1.351,0.35-2.7,0.7-4.04,1.05
	C232.38,333.77,230.15,332.01,231.08,328.039z"/>
<path fill="#454018" d="M240.89,339.92c3.859-0.011,7.189,1.89,8.979,5.319c-0.08,1.761-0.24,3.5-0.55,5.24
	C245.82,347.8,240.19,345.19,240.89,339.92z"/>
<path fill="#454018" d="M233.68,342.14c2,1.979,3.439,4.77,4.81,7.2c-1.73,0.18-3.46,0.41-5.2,0.449
	c-1.91-1.369-3.34-3.55-2.46-5.96C231.23,341.94,232.1,342.35,233.68,342.14z"/>
<path fill="#454018" d="M323.14,352.99c2.739,1.811,4.159,4.37,5.87,7.07c3.34,5.46,7.229,10.64,11.699,15.229
	c3.261,3.471,7.391,6.19,10.351,9.891c-0.33,1.01-0.721,1.99-1.181,2.97c-4.399-0.91-7.1-3.85-10.21-6.82
	c-6.149-5.979-11.529-12.689-16.1-19.939C322.12,358.44,319.67,355.579,323.14,352.99z"/>
<path fill="#454018" d="M251.88,360.119c-0.13,1.681-0.819,3.141-1.43,4.69c-2.59-2.49-6-4.84-6.58-8.66
	C247.1,353.199,250.92,357,251.88,360.119z"/>
<path fill="#454018" d="M259.35,365.21c2.949-0.591,6.319,1.159,8.37,3.199c0.09,1.12,0.09,2.221,0.01,3.311
	c-3.44,0.52-6.94-0.55-9.21-3.23C258.07,366.76,257.49,366.24,259.35,365.21z"/>
<path fill="#454018" d="M247.08,368.21c4.311,0.739,5.51,4.18,6.28,8.02c-2.82-0.7-6.53-0.68-7.9-3.76
	C244.74,370.84,244.69,368.079,247.08,368.21z"/>
<path fill="#454018" d="M270.37,378.53c2.04,1.58,3.16,4.55,4.28,6.8c-1.66-0.01-3.24,0.03-4.89-0.239
	c-2.28-1.12-3.471-3.41-3.711-5.87C267.17,377.909,268.9,377.56,270.37,378.53z"/>
<path fill="#454018" d="M373.32,381.22c2.24-0.57,4.75,1.76,6.36,3.08c7.279,6.859,13.47,15.069,18.109,23.92
	c9.971,19.31,15.82,40.979,15.311,62.78c0.319,15.729-2.021,32.31-8.351,46.789c-1.13,2.971-3.35,2.74-5.96,3.73
	c0.75-3.62,1.82-7.12,3.12-10.58c4.45-11.66,6.271-24.51,6.26-36.939c0.82-21.08-4.22-41.83-13.449-60.711
	C391.17,405.89,386.61,399,380.99,393c-2.41-2.591-5.21-4.82-7.52-7.48C372.46,384.11,370.85,382.1,373.32,381.22z"/>
</svg>
